<?xml version="1.0" encoding="utf-8"?>
<!-- Generator: Adobe Illustrator 23.0.1, SVG Export Plug-In . SVG Version: 6.00 Build 0)  -->
<svg version="1.1" id="Layer_1" xmlns="http://www.w3.org/2000/svg" xmlns:xlink="http://www.w3.org/1999/xlink" x="0px" y="0px"
	 viewBox="0 0 1711.7 648.9" style="enable-background:new 0 0 1711.7 648.9;" xml:space="preserve">
<style type="text/css">
	.st0{fill:#29AFCF;}
	.st1{fill:#FFFFFF;}
	.st2{fill:#91C4C6;}
	.st3{fill:#A6B5BC;}
	.st4{fill:#B2B2B2;}
	.st5{fill:none;stroke:#A8AFBA;stroke-width:18;stroke-miterlimit:10;}
	.st6{fill:none;stroke:#4B8E99;stroke-width:7;stroke-miterlimit:10;}
	.st7{fill:#C1C5CA;}
	.st8{fill:#4B4650;}
	.st9{fill:#57798F;}
	.st10{fill:#BFC8CE;}
	.st11{fill:#111119;}
	.st12{fill:#B1BAC6;}
	.st13{fill:#4E6576;}
	.st14{fill:#99A3AF;}
	.st15{fill:#7B828E;}
	.st16{fill:url(#SVGID_1_);}
	.st17{fill:url(#SVGID_2_);}
	.st18{fill:#1CA0AA;}
	.st19{fill:#F1F2F2;}
	.st20{fill:url(#SVGID_3_);}
	.st21{fill:url(#SVGID_4_);}
	.st22{fill:url(#SVGID_5_);}
	.st23{fill:url(#SVGID_6_);}
	.st24{fill:url(#SVGID_7_);}
	.st25{fill:url(#SVGID_8_);}
	.st26{fill:url(#SVGID_9_);}
	.st27{fill:url(#SVGID_10_);}
	.st28{fill:#0D2F3A;}
	.st29{fill:none;stroke:#29AFCF;stroke-width:2;stroke-miterlimit:10;}
	.st30{fill:none;stroke:#E81B2F;stroke-width:2;stroke-miterlimit:10;}
	.st31{fill:none;stroke:#178DA0;stroke-width:2;stroke-miterlimit:10;}
	.st32{fill:#178DA0;}
	.st33{fill:#E81B2F;}
	.st34{fill:#17656D;}
	.st35{fill:none;stroke:#B2B2B2;stroke-width:8;stroke-miterlimit:10;}
	.st36{fill:#B67444;}
	.st37{fill:#CC874D;}
	.st38{fill:#E19C5B;}
	.st39{fill:#F2AE6D;}
	.st40{fill:#F89271;}
	.st41{fill:#EDEDD9;}
	.st42{fill:#D3B094;}
	.st43{fill:url(#SVGID_11_);}
</style>
<path class="st0" d="M1000.1,455.5h-86c-6.6,0-12-5.4-12-12l0,0v-10c0-6.6,5.4-12,12-12h86c6.6,0,12,5.4,12,12v10
	C1012.1,450.2,1006.7,455.5,1000.1,455.5L1000.1,455.5z"/>
<path class="st1" d="M937.8,443.5v-11.1h4.2c0.6,0,1.1,0,1.7,0.1c0.5,0.1,1,0.2,1.4,0.5c0.4,0.3,0.7,0.6,0.9,1.1
	c0.2,0.5,0.3,1,0.3,1.5c0,0.9-0.3,1.7-0.9,2.4c-0.9,0.8-2.1,1.1-3.3,1h-2.8v4.5L937.8,443.5z M939.3,437.7h2.9
	c0.7,0.1,1.4-0.1,2-0.5c0.4-0.4,0.6-0.9,0.6-1.5c0-0.4-0.1-0.8-0.3-1.2c-0.2-0.3-0.6-0.6-0.9-0.7c-0.5-0.1-0.9-0.1-1.4-0.1h-2.8
	L939.3,437.7z"/>
<path class="st1" d="M953.3,443.5v-1.2c-0.6,0.9-1.5,1.4-2.6,1.4c-0.5,0-0.9-0.1-1.3-0.3c-0.4-0.1-0.7-0.4-0.9-0.7
	c-0.2-0.3-0.3-0.6-0.4-1c-0.1-0.4-0.1-0.9-0.1-1.3v-5h1.4v4.5c0,0.5,0,1,0.1,1.4c0.1,0.3,0.3,0.6,0.5,0.9c0.3,0.2,0.6,0.3,1,0.3
	c0.4,0,0.8-0.1,1.2-0.3c0.3-0.2,0.6-0.5,0.8-0.9c0.2-0.5,0.2-1,0.2-1.6v-4.3h1.4v8.1H953.3z"/>
<path class="st1" d="M956.7,446.6v-11.1h1.2v1c0.3-0.4,0.6-0.7,1-0.9c0.4-0.2,0.9-0.3,1.3-0.3c0.6,0,1.3,0.2,1.8,0.5
	c0.5,0.4,0.9,0.9,1.2,1.5c0.3,0.7,0.4,1.4,0.4,2.1c0,0.8-0.1,1.5-0.5,2.2c-0.5,1.2-1.7,2-3.1,2c-0.4,0-0.9-0.1-1.2-0.3
	c-0.3-0.2-0.6-0.4-0.9-0.7v3.9L956.7,446.6z M957.9,439.5c-0.1,0.8,0.2,1.6,0.6,2.3c0.4,0.5,0.9,0.8,1.5,0.8c0.6,0,1.2-0.3,1.5-0.8
	c0.5-0.7,0.7-1.5,0.7-2.4c0.1-0.8-0.2-1.6-0.6-2.3c-0.4-0.5-0.9-0.8-1.5-0.8c-0.6,0-1.2,0.3-1.5,0.8
	C958.1,437.8,957.8,438.7,957.9,439.5L957.9,439.5z"/>
<path class="st1" d="M965.3,446.6v-11.1h1.2v1c0.3-0.4,0.6-0.7,1-0.9c0.4-0.2,0.9-0.3,1.3-0.3c0.6,0,1.3,0.2,1.8,0.6
	c0.5,0.4,1,0.9,1.2,1.5c0.3,0.7,0.4,1.4,0.4,2.1c0,0.8-0.1,1.5-0.4,2.2c-0.5,1.2-1.7,2-3.1,2c-0.4,0-0.8-0.1-1.2-0.3
	c-0.3-0.2-0.6-0.4-0.9-0.7v3.9L965.3,446.6z M966.5,439.5c-0.1,0.8,0.2,1.6,0.6,2.3c0.4,0.5,0.9,0.7,1.5,0.8c0.6,0,1.2-0.3,1.6-0.8
	c0.5-0.7,0.7-1.5,0.7-2.4c0.1-0.8-0.2-1.6-0.6-2.3c-0.4-0.5-0.9-0.8-1.5-0.8c-0.6,0-1.2,0.3-1.5,0.8
	C966.7,437.8,966.5,438.7,966.5,439.5L966.5,439.5z"/>
<path class="st1" d="M973.9,446.6l-0.2-1.3c0.3,0.1,0.5,0.1,0.8,0.1c0.3,0,0.5,0,0.7-0.1c0.2-0.1,0.4-0.3,0.5-0.5
	c0.2-0.3,0.3-0.7,0.4-1l0.1-0.3l-3-8.1h1.5l1.7,4.7c0.2,0.6,0.4,1.2,0.6,1.9c0.2-0.6,0.3-1.2,0.6-1.8l1.7-4.7h1.4l-3.1,8.2
	c-0.2,0.6-0.5,1.2-0.8,1.8c-0.2,0.4-0.5,0.7-0.8,1c-0.3,0.2-0.7,0.3-1.1,0.3C974.5,446.8,974.2,446.7,973.9,446.6L973.9,446.6z"/>
<path class="st0" d="M1120.8,455.5h-86c-6.6,0-12-5.4-12-12l0,0v-10c0-6.6,5.4-12,12-12h86c6.6,0,12,5.4,12,12v10
	C1132.8,450.2,1127.4,455.5,1120.8,455.5L1120.8,455.5z"/>
<path class="st1" d="M1063.5,443.9c-0.8-0.5-1.4-1.2-1.8-2c-0.4-0.9-0.6-2-0.6-3c0-1,0.2-2.1,0.6-3c0.4-0.8,1-1.5,1.8-2
	c0.8-0.5,1.8-0.7,2.7-0.7c0.7,0,1.4,0.1,2.1,0.4c0.6,0.2,1.2,0.6,1.7,1l-0.5,1c-0.5-0.4-1-0.8-1.6-1c-0.5-0.2-1.1-0.3-1.7-0.3
	c-1.1-0.1-2.1,0.4-2.8,1.2c-0.7,1-1.1,2.1-1,3.4c-0.1,1.2,0.3,2.4,1,3.4c0.7,0.8,1.8,1.3,2.8,1.2c0.6,0,1.2-0.1,1.7-0.3
	c0.6-0.2,1.1-0.6,1.6-1l0.5,1c-0.5,0.5-1,0.8-1.7,1c-0.7,0.2-1.4,0.4-2.1,0.4C1065.3,444.6,1064.3,444.4,1063.5,443.9z"/>
<path class="st1" d="M1073.1,444.1c-0.6-0.3-1-0.8-1.3-1.4c-0.6-1.4-0.6-2.9,0-4.3c0.3-0.6,0.7-1.1,1.3-1.4c1.2-0.7,2.7-0.7,3.9,0
	c0.6,0.3,1,0.8,1.3,1.4c0.6,1.4,0.6,2.9,0,4.3c-0.3,0.6-0.7,1.1-1.3,1.4C1075.7,444.8,1074.3,444.8,1073.1,444.1z M1076.8,442.8
	c0.5-0.7,0.7-1.5,0.6-2.2c0.1-0.8-0.2-1.6-0.6-2.2c-0.9-1-2.4-1-3.4-0.1c-0.1,0-0.1,0.1-0.1,0.1c-0.5,0.6-0.7,1.4-0.6,2.2
	c-0.1,0.8,0.2,1.6,0.6,2.2C1074.2,443.8,1075.7,443.8,1076.8,442.8C1076.7,442.9,1076.8,442.8,1076.8,442.8L1076.8,442.8z"/>
<path class="st1" d="M1085,436.6v1.1c-0.3-0.1-0.5-0.1-0.8-0.1c-0.6-0.1-1.3,0.2-1.7,0.7c-0.4,0.5-0.6,1.1-0.6,1.7v4.5h-1.3v-5.6
	c0-0.7,0-1.5-0.1-2.2h1.2l0.1,1.4c0.2-0.5,0.5-0.9,1-1.2C1083.5,436.5,1084.3,436.4,1085,436.6L1085,436.6z"/>
<path class="st1" d="M1093.1,436.7v7.7c0.2,1.7-1,3.3-2.7,3.5c-0.3,0-0.5,0-0.8,0c-1.1,0-2.1-0.3-3.1-0.8l0.2-1
	c0.4,0.3,0.9,0.5,1.4,0.6c0.5,0.1,1,0.2,1.4,0.2c0.6,0,1.2-0.2,1.7-0.6c0.4-0.5,0.6-1.1,0.6-1.8v-1.8c-0.2,0.5-0.6,0.9-1,1.1
	c-0.5,0.3-1.1,0.4-1.6,0.4c-0.6,0-1.3-0.2-1.8-0.5c-0.5-0.3-1-0.8-1.2-1.4c-0.6-1.3-0.6-2.8,0-4.1c0.3-0.6,0.7-1,1.2-1.4
	c0.6-0.3,1.2-0.5,1.8-0.5c0.6,0,1.1,0.1,1.6,0.4c0.5,0.3,0.8,0.7,1.1,1.1v-1.4L1093.1,436.7z M1091.2,442.5c0.9-1.2,0.9-2.9,0-4.1
	c-0.4-0.5-1.1-0.8-1.8-0.8c-0.7,0-1.4,0.2-1.8,0.8c-0.9,1.2-0.9,2.9,0,4.1c0.5,0.5,1.1,0.8,1.8,0.8
	C1090.1,443.3,1090.7,443,1091.2,442.5z"/>
<path class="st1" d="M1095.4,433.4h1.5v1.4h-1.5V433.4z M1095.5,444.5v-7.8h1.3v7.8H1095.5z"/>
<path class="st0" d="M1243.5,454.2h-86c-6.6,0-12-5.4-12-12v-10c0-6.6,5.4-12,12-12h86c6.6,0,12,5.4,12,12v10
	C1255.5,448.9,1250.1,454.2,1243.5,454.2z"/>
<path class="st1" d="M1198.2,438.5c0.8,1.2,0.7,2.9-0.4,4c-0.8,0.6-1.8,0.8-2.7,0.8h-4.6v-11.1h4.4c0.9-0.1,1.9,0.2,2.6,0.8
	c1,0.9,1.2,2.5,0.5,3.7c-0.3,0.5-0.8,0.8-1.3,1C1197.3,437.7,1197.8,438,1198.2,438.5L1198.2,438.5z M1191.7,437h3
	c0.7,0,1.3-0.1,1.9-0.5c0.4-0.4,0.7-0.9,0.6-1.5c0-1.3-0.8-1.9-2.5-1.9h-3V437z M1196.8,441.6c0.4-0.4,0.7-0.9,0.6-1.5
	c0-1.4-0.8-2-2.5-2h-3.2v4h3.2C1195.6,442.2,1196.3,442,1196.8,441.6z"/>
<path class="st1" d="M1207.7,435.4v7.8h-1.2v-1.4c-0.2,0.5-0.6,0.9-1,1.1c-0.5,0.3-1,0.4-1.6,0.4c-0.6,0-1.3-0.2-1.8-0.5
	c-0.5-0.3-1-0.8-1.2-1.4c-0.3-0.7-0.4-1.4-0.4-2.1c0-0.7,0.1-1.5,0.4-2.1c0.3-0.6,0.7-1.1,1.2-1.4c0.5-0.4,1.2-0.5,1.8-0.5
	c0.6,0,1.1,0.1,1.6,0.4c0.4,0.3,0.8,0.7,1,1.1v-1.4L1207.7,435.4z M1205.9,441.5c0.5-0.6,0.7-1.4,0.6-2.2c0.1-0.8-0.2-1.6-0.6-2.2
	c-0.4-0.5-1.1-0.8-1.8-0.8c-0.7,0-1.4,0.3-1.8,0.8c-0.5,0.6-0.7,1.4-0.7,2.2c0,0.8,0.2,1.6,0.6,2.2c0.4,0.5,1.1,0.8,1.8,0.8
	C1204.8,442.3,1205.4,442,1205.9,441.5z"/>
<path class="st1" d="M1210.2,443.2v-11.4h1.3v11.4H1210.2z"/>
<path class="st1" d="M1213.9,443.2v-11.4h1.3v11.4H1213.9z"/>
<path class="st0" d="M1188.5,411.8h-86c-6.6,0-12-5.4-12-12v-10c0-6.6,5.4-12,12-12h86c6.6,0,12,5.4,12,12v10
	C1200.5,406.5,1195.1,411.8,1188.5,411.8z"/>
<path class="st1" d="M1128,400.8v-11h6.8v1h-5.6v3.8h5.3v1.1h-5.3v5.1H1128z"/>
<path class="st1" d="M1143,396.9h-5.7c-0.1,0.8,0.2,1.6,0.7,2.3c0.5,0.5,1.3,0.8,2,0.8c0.9,0,1.8-0.3,2.5-0.9l0.4,0.9
	c-0.4,0.3-0.8,0.6-1.3,0.8c-0.5,0.2-1.1,0.3-1.6,0.3c-1.1,0.1-2.1-0.3-2.9-1.1c-0.7-0.8-1.1-1.9-1-3c0-0.7,0.1-1.5,0.5-2.1
	c0.3-0.6,0.7-1.1,1.3-1.4c0.6-0.3,1.2-0.5,1.9-0.5c0.9-0.1,1.8,0.3,2.4,1c0.6,0.8,0.9,1.8,0.9,2.8L1143,396.9z M1138.1,394.4
	c-0.4,0.5-0.7,1-0.8,1.7h4.6c0-0.6-0.3-1.2-0.7-1.7c-0.4-0.4-0.9-0.6-1.5-0.6C1139.1,393.8,1138.5,394,1138.1,394.4z"/>
<path class="st1" d="M1146.5,394v4.3c0,0.4,0.1,0.9,0.4,1.2c0.3,0.2,0.6,0.4,1,0.4c0.3,0,0.6,0,0.8-0.1v1.1
	c-0.3,0.1-0.7,0.2-1.1,0.2c-0.6,0-1.3-0.2-1.8-0.6c-0.5-0.5-0.7-1.2-0.6-1.9V394h-1.6v-1h1.5v-2l1.3-0.5v2.5h2.2v1L1146.5,394z"/>
<path class="st1" d="M1151.5,400.5c-0.6-0.3-1-0.8-1.3-1.4c-0.3-0.7-0.5-1.4-0.5-2.1c0-0.7,0.1-1.5,0.5-2.1c0.3-0.6,0.8-1.1,1.3-1.4
	c0.6-0.3,1.3-0.5,2-0.5c0.5,0,1,0.1,1.5,0.3c0.5,0.2,0.9,0.4,1.2,0.8l-0.4,0.9c-0.4-0.3-0.7-0.5-1.2-0.7c-0.4-0.1-0.7-0.2-1.1-0.2
	c-0.7,0-1.4,0.3-1.9,0.8c-0.9,1.3-0.9,3.1,0,4.4c0.5,0.5,1.2,0.8,1.9,0.8c0.4,0,0.8-0.1,1.1-0.2c0.4-0.2,0.8-0.4,1.2-0.7l0.4,0.9
	c-0.4,0.3-0.8,0.6-1.2,0.7c-0.5,0.2-1,0.3-1.6,0.3C1152.8,401,1152.1,400.8,1151.5,400.5L1151.5,400.5z"/>
<path class="st1" d="M1164.7,395.9v4.9h-1.3V396c0-0.6-0.1-1.1-0.4-1.6c-0.4-0.4-0.9-0.5-1.4-0.5c-0.6,0-1.3,0.2-1.7,0.7
	c-0.4,0.5-0.7,1.1-0.7,1.8v4.5h-1.3v-11.4h1.3v4.9c0.2-0.5,0.6-0.8,1.1-1.1c0.5-0.2,1-0.4,1.6-0.4
	C1163.7,392.8,1164.7,393.9,1164.7,395.9L1164.7,395.9z"/>
<path class="st0" d="M1059.5,408.1h-86c-6.6,0-12-5.4-12-12v-10c0-6.6,5.4-12,12-12h86c6.6,0,12,5.4,12,12c0,0,0,0,0,0v10
	C1071.5,402.8,1066.1,408.1,1059.5,408.1L1059.5,408.1z"/>
<path class="st1" d="M1008.3,391.3v5.1c-0.5,0.3-1.1,0.4-1.7,0.5c-0.7,0.1-1.4,0.2-2.1,0.2c-1,0-2-0.2-2.8-0.7
	c-0.8-0.5-1.4-1.2-1.8-2c-0.4-0.9-0.7-2-0.6-3c0-1,0.2-2.1,0.6-3c0.4-0.8,1-1.5,1.8-2c0.8-0.5,1.8-0.7,2.8-0.7
	c0.7,0,1.5,0.1,2.1,0.4c0.6,0.2,1.2,0.6,1.7,1l-0.5,1c-0.5-0.4-1-0.8-1.6-1c-0.6-0.2-1.1-0.3-1.7-0.3c-1.1-0.1-2.1,0.4-2.9,1.2
	c-1.4,2.1-1.4,4.7,0,6.8c0.8,0.8,1.9,1.3,3,1.2c0.9,0,1.8-0.1,2.7-0.4v-3.4h-2.8v-1L1008.3,391.3z"/>
<path class="st1" d="M1015.1,389.2v1.1c-0.3-0.1-0.5-0.1-0.8-0.1c-0.6,0-1.3,0.2-1.7,0.7c-0.4,0.5-0.6,1.1-0.5,1.7v4.5h-1.3v-5.6
	c0-0.7,0-1.5-0.1-2.2h1.2l0.1,1.4c0.2-0.5,0.5-0.9,0.9-1.2c0.4-0.3,1-0.4,1.5-0.4C1014.6,389.1,1014.8,389.1,1015.1,389.2z"/>
<path class="st1" d="M1023.1,389.3v7.8h-1.2v-1.4c-0.2,0.5-0.6,0.9-1,1.1c-0.5,0.3-1,0.4-1.6,0.4c-0.6,0-1.3-0.2-1.8-0.5
	c-0.5-0.3-1-0.8-1.2-1.4c-0.3-0.7-0.4-1.4-0.4-2.1c0-0.7,0.1-1.5,0.4-2.1c0.3-0.6,0.7-1.1,1.2-1.4c0.5-0.4,1.2-0.5,1.8-0.5
	c0.6,0,1.1,0.1,1.6,0.4c0.4,0.3,0.8,0.7,1,1.1v-1.4H1023.1z M1021.2,395.4c0.8-1.4,0.8-3.1,0-4.5c-0.9-1-2.4-1.1-3.4-0.2
	c-0.1,0-0.1,0.1-0.2,0.2c-0.9,1.4-0.9,3.1,0,4.4c0.4,0.5,1.1,0.8,1.8,0.8C1020.1,396.2,1020.8,395.9,1021.2,395.4L1021.2,395.4z"/>
<path class="st1" d="M1025,396.2l0.4-0.9c0.4,0.3,0.8,0.5,1.3,0.7c0.5,0.2,1,0.2,1.5,0.2c0.5,0,0.9-0.1,1.3-0.3
	c0.3-0.2,0.5-0.5,0.5-0.9c0-0.3-0.1-0.6-0.3-0.8c-0.3-0.2-0.6-0.4-1-0.4l-1.3-0.3c-0.6-0.1-1.1-0.4-1.5-0.8
	c-0.3-0.4-0.5-0.8-0.5-1.3c0-0.7,0.3-1.3,0.8-1.7c0.6-0.5,1.4-0.7,2.2-0.6c0.5,0,1.1,0.1,1.6,0.3c0.5,0.2,0.9,0.4,1.2,0.8l-0.4,0.9
	c-0.7-0.6-1.5-0.9-2.4-0.9c-0.5,0-0.9,0.1-1.3,0.3c-0.3,0.2-0.5,0.5-0.5,0.9c0,0.3,0.1,0.6,0.3,0.8c0.3,0.2,0.6,0.4,0.9,0.4l1.3,0.3
	c0.6,0.1,1.2,0.4,1.6,0.8c0.4,0.4,0.5,0.9,0.5,1.4c0,0.6-0.3,1.2-0.8,1.6c-0.7,0.4-1.4,0.7-2.2,0.6
	C1027,397.3,1025.9,396.9,1025,396.2L1025,396.2z"/>
<path class="st1" d="M1032.7,396.2l0.4-0.9c0.4,0.3,0.8,0.5,1.3,0.7c0.5,0.2,1,0.2,1.5,0.2c0.5,0,0.9-0.1,1.3-0.3
	c0.3-0.2,0.5-0.5,0.5-0.9c0-0.3-0.1-0.6-0.3-0.8c-0.3-0.2-0.6-0.4-1-0.4l-1.3-0.3c-0.6-0.1-1.1-0.4-1.5-0.8
	c-0.3-0.4-0.5-0.8-0.5-1.3c0-0.7,0.3-1.3,0.8-1.7c0.6-0.5,1.4-0.7,2.2-0.6c0.5,0,1.1,0.1,1.5,0.3c0.5,0.2,0.9,0.4,1.2,0.8l-0.4,0.9
	c-0.7-0.6-1.5-0.9-2.4-0.9c-0.5,0-0.9,0.1-1.3,0.3c-0.3,0.2-0.5,0.5-0.5,0.9c0,0.3,0.1,0.6,0.3,0.8c0.3,0.2,0.6,0.4,0.9,0.4l1.3,0.3
	c0.6,0.1,1.2,0.4,1.6,0.8c0.4,0.4,0.5,0.9,0.5,1.4c0,0.6-0.3,1.2-0.8,1.6c-0.7,0.4-1.4,0.7-2.2,0.6
	C1034.7,397.3,1033.6,396.9,1032.7,396.2L1032.7,396.2z"/>
<path class="st0" d="M1122.5,365.7h-86c-6.6,0-12-5.4-12-12v-10c0-6.6,5.4-12,12-12h86c6.6,0,12,5.4,12,12v10
	C1134.5,360.4,1129.1,365.7,1122.5,365.7z"/>
<path class="st1" d="M1067.9,354.7v-11.1h4.2c0.6,0,1.1,0,1.7,0.1c0.5,0.1,1,0.2,1.4,0.5c0.4,0.3,0.7,0.6,0.9,1.1
	c0.2,0.5,0.3,1,0.3,1.5c0,0.9-0.3,1.7-0.9,2.4c-0.9,0.8-2.1,1.1-3.3,1h-2.8v4.5L1067.9,354.7z M1069.4,348.9h2.9
	c0.7,0.1,1.4-0.1,2-0.5c0.4-0.4,0.6-0.9,0.6-1.5c0-0.4-0.1-0.8-0.3-1.2c-0.2-0.3-0.6-0.6-0.9-0.7c-0.5-0.1-0.9-0.1-1.4-0.1h-2.8
	L1069.4,348.9z"/>
<path class="st1" d="M1078.1,354.7v-11.1h1.4v11.1H1078.1z"/>
<path class="st1" d="M1086.8,353.7c-0.4,0.4-0.9,0.7-1.5,0.9c-0.5,0.2-1,0.3-1.5,0.3c-0.7,0-1.4-0.2-2-0.6c-0.5-0.4-0.7-1-0.7-1.6
	c0-0.4,0.1-0.7,0.3-1.1c0.2-0.3,0.4-0.6,0.7-0.8c0.3-0.2,0.6-0.4,1-0.5c0.4-0.1,0.8-0.2,1.2-0.2c0.8-0.1,1.6-0.2,2.4-0.5
	c0-0.2,0-0.3,0-0.4c0-0.4-0.1-0.9-0.4-1.2c-0.4-0.3-1-0.5-1.6-0.5c-0.5,0-1,0.1-1.4,0.3c-0.4,0.3-0.6,0.7-0.7,1.2l-1.3-0.2
	c0.1-0.5,0.3-1,0.6-1.4c0.3-0.4,0.7-0.7,1.2-0.8c0.6-0.2,1.2-0.3,1.8-0.3c0.6,0,1.1,0.1,1.7,0.2c0.4,0.1,0.7,0.3,1,0.6
	c0.2,0.3,0.4,0.6,0.4,0.9c0.1,0.4,0.1,0.8,0.1,1.2v1.8c0,0.8,0,1.6,0.1,2.4c0.1,0.4,0.2,0.7,0.3,1h-1.4
	C1087,354.4,1086.9,354.1,1086.8,353.7L1086.8,353.7z M1086.7,350.7c-0.7,0.3-1.5,0.4-2.2,0.5c-0.4,0-0.8,0.1-1.2,0.3
	c-0.2,0.1-0.4,0.2-0.5,0.4c-0.1,0.2-0.2,0.4-0.2,0.6c0,0.3,0.1,0.7,0.4,0.9c0.3,0.3,0.8,0.4,1.2,0.4c0.5,0,1-0.1,1.4-0.3
	c0.4-0.2,0.7-0.6,0.9-1c0.2-0.4,0.2-0.9,0.2-1.4L1086.7,350.7z"/>
<path class="st1" d="M1090.1,357.8l-0.2-1.3c0.3,0.1,0.5,0.1,0.8,0.1c0.3,0,0.5,0,0.7-0.1c0.2-0.1,0.3-0.3,0.4-0.4
	c0.2-0.3,0.3-0.7,0.4-1c0-0.1,0.1-0.2,0.1-0.3l-3.1-8.1h1.5l1.7,4.7c0.2,0.6,0.4,1.2,0.6,1.9c0.2-0.6,0.3-1.2,0.6-1.8l1.7-4.7h1.4
	l-3.1,8.2c-0.2,0.6-0.5,1.2-0.8,1.8c-0.2,0.4-0.5,0.7-0.8,1c-0.3,0.2-0.7,0.3-1.1,0.3C1090.7,358,1090.4,357.9,1090.1,357.8
	L1090.1,357.8z"/>
<path class="st2" d="M1001.4,464c0-2.8,2.2-5,5-5h142.7c2.8,0,5,2.2,5,5s-2.2,5-5,5h-142.7C1003.7,469,1001.4,466.7,1001.4,464
	L1001.4,464z"/>
<path class="st3" d="M164.3,529.1h1393.1c2.7,0,4.8,2.2,4.8,4.8v16.6c0,2.7-2.2,4.8-4.8,4.8H164.3c-2.7,0-4.8-2.2-4.8-4.8V534
	C159.5,531.3,161.6,529.1,164.3,529.1z"/>
<path class="st4" d="M194.8,642.3c0-3.5,4.5-6.4,10-6.4h1323.3c5.5,0,10,2.9,10,6.4s-4.5,6.4-10,6.4H204.8
	C199.3,648.7,194.8,645.8,194.8,642.3L194.8,642.3z"/>
<circle class="st5" cx="678.6" cy="499.6" r="18.2"/>
<circle class="st5" cx="592.9" cy="499.6" r="18.2"/>
<circle class="st5" cx="507.3" cy="499.6" r="18.2"/>
<circle class="st5" cx="421.6" cy="499.6" r="18.2"/>
<circle class="st5" cx="335.9" cy="499.6" r="18.2"/>
<circle class="st5" cx="250.3" cy="499.6" r="18.2"/>
<circle class="st5" cx="164.6" cy="499.6" r="18.2"/>
<circle class="st5" cx="1556.3" cy="499.3" r="18.2"/>
<circle class="st5" cx="1470.7" cy="499.3" r="18.2"/>
<circle class="st5" cx="1385" cy="499.3" r="18.2"/>
<circle class="st5" cx="1299.3" cy="499.3" r="18.2"/>
<circle class="st5" cx="1213.7" cy="499.3" r="18.2"/>
<circle class="st5" cx="1128" cy="499.3" r="18.2"/>
<circle class="st5" cx="1042.3" cy="499.3" r="18.2"/>
<path class="st6" d="M1559.5,529.1H165.7c-6.6,0-27.3-2.3-27.3-26.9c0-24.6,18.4-26.8,25-26.8l1394.8-0.1c9.2,0.9,25.8,7,25.8,24.3
	C1584,518.8,1572.2,529.1,1559.5,529.1L1559.5,529.1z"/>
<path class="st7" d="M840.5,146h26.7c-5.9,27.5-6.7,90.3-5.9,111c0.9,22,0,93,5.9,138.5h-26.7c5.7-34,5-107.5,5.7-138.5
	S847,168.5,840.5,146L840.5,146z"/>
<path class="st8" d="M840.5,23.6c0,0,6.3-7.8,11.9-10c8.3-3.4,17.1-5.6,26-6.7l0.5-0.1c0,0-18.6,5.5-26.5,9.4
	C849.3,17.8,840.5,23.6,840.5,23.6z"/>
<path class="st9" d="M844.2,123.5c3.4,12-11.9,26.9-34.3,33.4s-37.5,9.6-40.9-2.4c-1.9-6.6-3.5-20.5,1.9-30.4
	c3.9-7.1,15.2-11.3,25.2-14.2C818.6,103.5,840.8,111.5,844.2,123.5L844.2,123.5z"/>
<path class="st10" d="M770.7,131.3c0-5.3,2.9-10.3,7.5-12.9c8-4.8,21.6-7.9,21.6-7.9c-7.4,3.2-10.4,3.9-19.3,11
	C772.7,127.6,770.7,131.3,770.7,131.3L770.7,131.3z"/>
<circle class="st7" cx="852" cy="92.8" r="63.7"/>
<path class="st11" d="M830.2,93.5c0,22.5,15.6,43.7-6.9,43.7c-14.8,0-30.2-21.2-30.2-43.7s7.4-37.3,31-36.6
	C848.7,57.7,830.2,70.9,830.2,93.5L830.2,93.5z"/>
<path class="st12" d="M869.1,103.4c-14.4,18.3-13.6,38.1-5,45.5s25.5-1.9,36-14.2s20.8-38.2,12.2-45.6S882.4,86.5,869.1,103.4
	L869.1,103.4z"/>
<path class="st8" d="M872.1,32.3c0,0-11.2,1.4-15.5,3.7c-5.3,2.8-9.9,7.6-15.8,8.6c-10.7,1.9-19.9,0.5-20.6-3.2
	c-0.7-3.7,8.8-8.8,19.6-11.1C856.5,26.6,872.1,32.3,872.1,32.3z"/>
<path class="st13" d="M875.2,107.4c-12.3,15.5-10.5,29.8-3.2,36s19.4,0.8,28.2-9.6s16.4-28.5,9.1-34.7S884.8,95.3,875.2,107.4z"/>
<path class="st14" d="M923.9,148.9c-4.4,17.4-19.1,27.6-37.6,19.4c-13.1-5.8-9.2-22,0.3-37.3s24-28.5,33.8-18.1
	C928.2,121.2,927,136.6,923.9,148.9z"/>
<ellipse transform="matrix(0.1239 -0.9923 0.9923 0.1239 663.5192 1025.3007)" class="st15" cx="912.4" cy="136.9" rx="19.2" ry="12.9"/>
<radialGradient id="SVGID_1_" cx="951.3104" cy="149.5955" r="11.6898" gradientTransform="matrix(0 -1 0.9 0 780.58 1088.6899)" gradientUnits="userSpaceOnUse">
	<stop  offset="0" style="stop-color:#29AFCF"/>
	<stop  offset="0.18" style="stop-color:#28A8C8"/>
	<stop  offset="0.36" style="stop-color:#2497B3"/>
	<stop  offset="0.55" style="stop-color:#1F7C94"/>
	<stop  offset="0.74" style="stop-color:#175C6E"/>
	<stop  offset="0.93" style="stop-color:#103A48"/>
	<stop  offset="1" style="stop-color:#0D2F3A"/>
</radialGradient>
<path class="st16" d="M924.4,138.5c-0.9,7.5-5.8,13.1-10.8,12.5s-8.4-7.2-7.4-14.8s5.8-13.1,10.8-12.5S925.3,131,924.4,138.5z"/>
<radialGradient id="SVGID_2_" cx="943.9564" cy="115.7534" r="12.31" gradientTransform="matrix(-0.17 -0.92 1.02 -0.27 857.43 1004.46)" gradientUnits="userSpaceOnUse">
	<stop  offset="0" style="stop-color:#29AFCF"/>
	<stop  offset="0.18" style="stop-color:#28A8C8"/>
	<stop  offset="0.36" style="stop-color:#2497B3"/>
	<stop  offset="0.55" style="stop-color:#1F7C94"/>
	<stop  offset="0.74" style="stop-color:#175C6E"/>
	<stop  offset="0.93" style="stop-color:#103A48"/>
	<stop  offset="1" style="stop-color:#0D2F3A"/>
</radialGradient>
<path class="st17" d="M823.2,100c3.3,6.2,1.3,13.7-4.3,16.6s-12.9,0.3-16.1-5.9s-1.3-13.7,4.3-16.6S819.9,93.7,823.2,100z"/>
<path class="st7" d="M873.7,5.3c0.9,2.7-9.5,4.5-18.2,7.2c-9.9,3.1-13,11.8-20.8,14.5c-14.9,5.2-20.9,2-22.9-3.7s8.5-14.5,23.4-19.6
	S871.8-0.4,873.7,5.3z"/>
<path class="st18" d="M853,0.5c1.4-0.3,32.3-2.4,30.2,4.6c-0.6,2.1-8.5,1.5-15.4,3.9c-1.7-1.5-3.6-2.8-5.6-3.9
	c-2.1-1.1-4.3-2.1-6.6-2.9c0,0-3.2,2.4-8.2,6.8s-10.9,9.7-10.9,9.7c2.3-4.2,5.3-8.1,8.8-11.3c2.9-2.3,6-4.3,9.3-5.9L853,0.5z"/>
<path class="st19" d="M865.2,58.1l17.8-6.7c0.7,0.9,9.4,3.3,12.2,18.2c-11.7-2.9-19.6-1.8-19.6-1.8c-0.6-1.7-1.5-3.3-2.8-4.7
	C870.5,61.2,867.9,59.5,865.2,58.1L865.2,58.1z"/>
<path class="st7" d="M1002.1,610H717.7c-6.6,0-12-5.4-12-12V216.2c0-6.6,5.4-12,12-12h284.4c6.6,0,12,5.4,12,12V598
	C1014.1,604.7,1008.7,610,1002.1,610z"/>
<circle class="st15" cx="761.4" cy="274.1" r="23.5"/>
<circle class="st15" cx="852.8" cy="274.1" r="23.5"/>
<circle class="st15" cx="942.7" cy="274.1" r="23.5"/>
<radialGradient id="SVGID_3_" cx="766.0249" cy="811.56" r="18.665" gradientTransform="matrix(1 0 0 1 -4.65 -537.43)" gradientUnits="userSpaceOnUse">
	<stop  offset="0" style="stop-color:#29AFCF"/>
	<stop  offset="0.18" style="stop-color:#28A8C8"/>
	<stop  offset="0.36" style="stop-color:#2497B3"/>
	<stop  offset="0.55" style="stop-color:#1F7C94"/>
	<stop  offset="0.74" style="stop-color:#175C6E"/>
	<stop  offset="0.93" style="stop-color:#103A48"/>
	<stop  offset="1" style="stop-color:#0D2F3A"/>
</radialGradient>
<circle class="st20" cx="761.4" cy="274.1" r="18.7"/>
<radialGradient id="SVGID_4_" cx="750.5849" cy="1058.9299" r="5.75" gradientTransform="matrix(1 0 0 1 -4.65 -537.43)" gradientUnits="userSpaceOnUse">
	<stop  offset="0" style="stop-color:#29AFCF"/>
	<stop  offset="0.18" style="stop-color:#28A8C8"/>
	<stop  offset="0.36" style="stop-color:#2497B3"/>
	<stop  offset="0.55" style="stop-color:#1F7C94"/>
	<stop  offset="0.74" style="stop-color:#175C6E"/>
	<stop  offset="0.93" style="stop-color:#103A48"/>
	<stop  offset="1" style="stop-color:#0D2F3A"/>
</radialGradient>
<circle class="st21" cx="746" cy="521.5" r="5.7"/>
<radialGradient id="SVGID_5_" cx="782.9649" cy="1058.9299" r="5.75" gradientTransform="matrix(1 0 0 1 -4.65 -537.43)" gradientUnits="userSpaceOnUse">
	<stop  offset="0" style="stop-color:#29AFCF"/>
	<stop  offset="0.18" style="stop-color:#28A8C8"/>
	<stop  offset="0.36" style="stop-color:#2497B3"/>
	<stop  offset="0.55" style="stop-color:#1F7C94"/>
	<stop  offset="0.74" style="stop-color:#175C6E"/>
	<stop  offset="0.93" style="stop-color:#103A48"/>
	<stop  offset="1" style="stop-color:#0D2F3A"/>
</radialGradient>
<circle class="st22" cx="778.3" cy="521.5" r="5.7"/>
<radialGradient id="SVGID_6_" cx="815.3549" cy="1058.9299" r="5.75" gradientTransform="matrix(1 0 0 1 -4.65 -537.43)" gradientUnits="userSpaceOnUse">
	<stop  offset="0" style="stop-color:#29AFCF"/>
	<stop  offset="0.18" style="stop-color:#28A8C8"/>
	<stop  offset="0.36" style="stop-color:#2497B3"/>
	<stop  offset="0.55" style="stop-color:#1F7C94"/>
	<stop  offset="0.74" style="stop-color:#175C6E"/>
	<stop  offset="0.93" style="stop-color:#103A48"/>
	<stop  offset="1" style="stop-color:#0D2F3A"/>
</radialGradient>
<circle class="st23" cx="810.7" cy="521.5" r="5.7"/>
<radialGradient id="SVGID_7_" cx="847.7249" cy="1058.9299" r="5.75" gradientTransform="matrix(1 0 0 1 -4.65 -537.43)" gradientUnits="userSpaceOnUse">
	<stop  offset="0" style="stop-color:#29AFCF"/>
	<stop  offset="0.18" style="stop-color:#28A8C8"/>
	<stop  offset="0.36" style="stop-color:#2497B3"/>
	<stop  offset="0.55" style="stop-color:#1F7C94"/>
	<stop  offset="0.74" style="stop-color:#175C6E"/>
	<stop  offset="0.93" style="stop-color:#103A48"/>
	<stop  offset="1" style="stop-color:#0D2F3A"/>
</radialGradient>
<circle class="st24" cx="843.1" cy="521.5" r="5.7"/>
<radialGradient id="SVGID_8_" cx="880.1249" cy="1058.9299" r="5.74" gradientTransform="matrix(1 0 0 1 -4.65 -537.43)" gradientUnits="userSpaceOnUse">
	<stop  offset="0" style="stop-color:#29AFCF"/>
	<stop  offset="0.18" style="stop-color:#28A8C8"/>
	<stop  offset="0.36" style="stop-color:#2497B3"/>
	<stop  offset="0.55" style="stop-color:#1F7C94"/>
	<stop  offset="0.74" style="stop-color:#175C6E"/>
	<stop  offset="0.93" style="stop-color:#103A48"/>
	<stop  offset="1" style="stop-color:#0D2F3A"/>
</radialGradient>
<circle class="st25" cx="875.5" cy="521.5" r="5.7"/>
<radialGradient id="SVGID_9_" cx="857.6649" cy="811.56" r="18.68" gradientTransform="matrix(1 0 0 1 -4.65 -537.43)" gradientUnits="userSpaceOnUse">
	<stop  offset="0" style="stop-color:#29AFCF"/>
	<stop  offset="0.18" style="stop-color:#28A8C8"/>
	<stop  offset="0.36" style="stop-color:#2497B3"/>
	<stop  offset="0.55" style="stop-color:#1F7C94"/>
	<stop  offset="0.74" style="stop-color:#175C6E"/>
	<stop  offset="0.93" style="stop-color:#103A48"/>
	<stop  offset="1" style="stop-color:#0D2F3A"/>
</radialGradient>
<circle class="st26" cx="853" cy="274.1" r="18.7"/>
<radialGradient id="SVGID_10_" cx="947.3249" cy="811.56" r="18.7" gradientTransform="matrix(1 0 0 1 -4.65 -537.43)" gradientUnits="userSpaceOnUse">
	<stop  offset="0" style="stop-color:#29AFCF"/>
	<stop  offset="0.18" style="stop-color:#28A8C8"/>
	<stop  offset="0.36" style="stop-color:#2497B3"/>
	<stop  offset="0.55" style="stop-color:#1F7C94"/>
	<stop  offset="0.74" style="stop-color:#175C6E"/>
	<stop  offset="0.93" style="stop-color:#103A48"/>
	<stop  offset="1" style="stop-color:#0D2F3A"/>
</radialGradient>
<circle class="st27" cx="942.7" cy="274.1" r="18.7"/>
<path class="st15" d="M869.2,405.4H751.5c-6.6,0-12-5.4-12-12v-54.6c0-6.6,5.4-12,12-12h117.7c6.6,0,12,5.4,12,12v54.6
	C881.2,400.1,875.8,405.4,869.2,405.4z"/>
<path class="st28" d="M861.7,399.4H758.6c-6.6,0-12-5.4-12-12v-42.2c0-6.6,5.4-12,12-12h103.1c6.6,0,12,5.4,12,12v42.2
	C873.7,394.1,868.3,399.4,861.7,399.4z"/>
<path class="st29" d="M746.6,353h28.6l5.9-7.7l5.3,16.8l9-19.2l7.4,9.6H823l7.3-7.9l5.2,17.3l6.5-22.1l4.5,9l5.5,10.9l7.4-7.4h14.3"
	/>
<path class="st30" d="M873.7,379.6h-28.6l-5.7,15.7l-7.4-23.6l-6,18.5l-8.5-11.1h-20.2l-3-7.6l-8.6,20l-7.4-25.1l-4.5,9l-5.5,10.9
	l-7.3-7.4h-14.4"/>
<path class="st15" d="M869,508H751.3c-6.6,0-12-5.4-12-12v-54.6c0-6.6,5.4-12,12-12H869c6.6,0,12,5.4,12,12V496
	C881,502.7,875.6,508,869,508z"/>
<path class="st19" d="M861.5,502H758.4c-6.6,0-12-5.4-12-12v-42.2c0-6.6,5.4-12,12-12h103.1c6.6,0,12,5.4,12,12V490
	C873.5,496.7,868.1,502,861.5,502z"/>
<path class="st29" d="M752.6,450.1h115.6"/>
<path class="st30" d="M752.1,468.7h115.6"/>
<path class="st31" d="M751.6,487.2h115.7"/>
<path class="st29" d="M769.9,442.1v14.7"/>
<path class="st30" d="M843.8,461.6v14.6"/>
<path class="st31" d="M792.5,479.9v14.7"/>
<circle class="st0" cx="809.9" cy="417.4" r="4.6"/>
<circle class="st32" cx="787.5" cy="417.4" r="4.6"/>
<circle class="st33" cx="831.4" cy="417.4" r="4.6"/>
<path class="st13" d="M903.7,405.4h-4c-2.5,0-4.5-2-4.5-4.5c0,0,0,0,0,0v-69.6c0-2.5,2-4.5,4.5-4.5c0,0,0,0,0,0h4
	c2.5,0,4.5,2,4.5,4.5c0,0,0,0,0,0v69.6C908.2,403.4,906.2,405.4,903.7,405.4C903.7,405.4,903.7,405.4,903.7,405.4z"/>
<path class="st28" d="M743.7,568.6c-1.3,0-2.3-1-2.3-2.3V536c0-1.3,1-2.3,2.3-2.3c1.3,0,2.3,1,2.3,2.3v30.3
	C746,567.6,744.9,568.6,743.7,568.6z"/>
<path class="st28" d="M759.7,568.6c-1.3,0-2.3-1-2.3-2.3V536c0-1.3,1-2.3,2.3-2.3c1.3,0,2.3,1,2.3,2.3v30.3
	C761.9,567.6,760.9,568.5,759.7,568.6z"/>
<path class="st28" d="M767.7,568.6c-1.3,0-2.3-1-2.3-2.3V536c0-1.3,1-2.3,2.3-2.3c1.3,0,2.3,1,2.3,2.3v30.3
	C769.9,567.6,768.9,568.5,767.7,568.6z"/>
<path class="st28" d="M751.7,568.6c-1.3,0-2.3-1-2.3-2.3V536c0-1.3,1-2.3,2.3-2.3c1.3,0,2.3,1,2.3,2.3v30.3
	C753.9,567.6,752.9,568.6,751.7,568.6z"/>
<path class="st28" d="M783.2,568.6c-1.3,0-2.3-1-2.3-2.3V536c0-1.3,1-2.3,2.3-2.3c1.3,0,2.3,1,2.3,2.3v30.3
	C785.5,567.6,784.4,568.6,783.2,568.6z"/>
<path class="st28" d="M799.2,568.6c-1.3,0-2.3-1-2.3-2.3V536c0-1.3,1-2.3,2.3-2.3c1.3,0,2.3,1,2.3,2.3v30.3
	C801.4,567.6,800.4,568.6,799.2,568.6z"/>
<path class="st28" d="M807.2,568.6c-1.3,0-2.3-1-2.3-2.3V536c0-1.3,1-2.3,2.3-2.3c1.3,0,2.3,1,2.3,2.3v30.3
	C809.4,567.6,808.4,568.5,807.2,568.6z"/>
<path class="st28" d="M791.2,568.6c-1.3,0-2.3-1-2.3-2.3V536c0-1.3,1-2.3,2.3-2.3c1.3,0,2.3,1,2.3,2.3v30.3
	C793.5,567.6,792.4,568.6,791.2,568.6z"/>
<path class="st28" d="M822.7,568.6c-1.3,0-2.3-1-2.3-2.3V536c0-1.3,1-2.3,2.3-2.3c1.3,0,2.3,1,2.3,2.3v30.3
	C825,567.6,823.9,568.6,822.7,568.6z"/>
<path class="st28" d="M838.7,568.6c-1.3,0-2.3-1-2.3-2.3V536c0-1.2,1-2.2,2.2-2.3c1.3,0,2.3,1,2.3,2.3v30.3c0.1,1.2-0.9,2.2-2.1,2.3
	C838.8,568.6,838.7,568.6,838.7,568.6z"/>
<path class="st28" d="M846.7,568.6c-1.3,0-2.3-1-2.3-2.3V536c0-1.3,1-2.3,2.3-2.3c1.3,0,2.3,1,2.3,2.3v30.3
	C848.9,567.6,847.9,568.6,846.7,568.6z"/>
<path class="st28" d="M830.7,568.6c-1.3,0-2.3-1-2.3-2.3V536c0-1.3,1-2.3,2.3-2.3c1.3,0,2.3,1,2.3,2.3v30.3
	C833,567.6,831.9,568.6,830.7,568.6z"/>
<path class="st13" d="M930,405.7h-4c-2.5,0-4.5-2-4.5-4.5c0,0,0,0,0,0v-69.6c0-2.5,2-4.5,4.5-4.5c0,0,0,0,0,0h4c2.5,0,4.5,2,4.5,4.5
	c0,0,0,0,0,0v69.6C934.4,403.7,932.4,405.7,930,405.7z"/>
<path class="st13" d="M956.2,405.9h-4c-2.5,0-4.5-2-4.5-4.5c0,0,0,0,0,0v-69.6c0-2.5,2-4.5,4.5-4.5c0,0,0,0,0,0h4
	c2.5,0,4.5,2,4.5,4.5c0,0,0,0,0,0v69.6C960.7,403.9,958.7,405.9,956.2,405.9C956.2,405.9,956.2,405.9,956.2,405.9z"/>
<path class="st13" d="M982.5,406.1h-4c-2.5,0-4.5-2-4.5-4.5c0,0,0,0,0,0V332c0-2.5,2-4.5,4.5-4.5c0,0,0,0,0,0h4c2.5,0,4.5,2,4.5,4.5
	c0,0,0,0,0,0v69.6C986.9,404.1,984.9,406.1,982.5,406.1z"/>
<path class="st19" d="M901.4,366.8c-2.4,0-4.3-1.9-4.3-4.2c0,0,0,0,0-0.1v-44.7c0-2.4,1.9-4.3,4.3-4.3c2.4,0,4.3,1.9,4.3,4.3v44.7
	C905.7,364.9,903.7,366.8,901.4,366.8z"/>
<path class="st19" d="M954.2,366.8c-2.4,0-4.3-1.9-4.3-4.2c0,0,0,0,0-0.1v-44.7c0-2.4,1.9-4.3,4.2-4.3c0,0,0,0,0.1,0
	c2.4,0,4.3,1.9,4.3,4.3v44.7C958.5,364.9,956.6,366.8,954.2,366.8C954.2,366.8,954.2,366.8,954.2,366.8z"/>
<path class="st19" d="M980.5,366.8c-2.4,0-4.3-1.9-4.3-4.2c0,0,0,0,0-0.1v-44.7c0-2.4,1.9-4.3,4.2-4.3c0,0,0,0,0.1,0
	c2.4,0,4.3,1.9,4.3,4.3v44.7C984.8,364.9,982.8,366.8,980.5,366.8z"/>
<path class="st19" d="M928,420.2c-2.4,0-4.3-1.9-4.3-4.3v-44.7c0-2.4,1.9-4.3,4.2-4.3c0,0,0,0,0.1,0c2.4,0,4.3,1.9,4.3,4.3v44.7
	C932.3,418.3,930.3,420.2,928,420.2z"/>
<circle class="st33" cx="928" cy="420.2" r="8.6"/>
<circle class="st33" cx="980.5" cy="313.4" r="8.6"/>
<circle class="st0" cx="954.3" cy="313.4" r="8.6"/>
<circle class="st0" cx="901.7" cy="313.4" r="8.6"/>
<path class="st34" d="M1036.9,648.9h-354v-57.5c0-6.6,5.4-12,12-12h330c6.6,0,12,5.4,12,12V648.9z"/>
<path class="st35" d="M303.7,555.4v89.5"/>
<path class="st35" d="M372.6,555.4v87.1"/>
<path class="st35" d="M1350.5,555.4v88.2"/>
<path class="st35" d="M1419.4,555.4V641"/>
<g transform="translate(-4.65 -12.17)">
	<path class="st0" d="M1396.5,468.1h-86c-6.6,0-12-5.4-12-12v-10c0-6.6,5.4-12,12-12h86c6.6,0,12,5.4,12,12v10
		C1408.5,462.7,1403.2,468.1,1396.5,468.1z"/>
	<path class="st1" d="M1334.5,445h4.4c1-0.1,1.9,0.2,2.7,0.8c0.7,0.6,1,1.4,1,2.3c0,0.9-0.3,1.7-1,2.3c-0.8,0.6-1.7,0.9-2.7,0.8
		h-3.1v4.9h-1.3L1334.5,445z M1338.8,450.1c0.7,0.1,1.3-0.1,1.8-0.5c0.4-0.4,0.7-1,0.6-1.5c0-0.6-0.2-1.1-0.6-1.5
		c-0.5-0.4-1.2-0.6-1.8-0.5h-3v4.1H1338.8z"/>
	<path class="st1" d="M1350.9,448.3v7.8h-1.2v-1.4c-0.2,0.5-0.6,0.8-1,1.1c-0.5,0.2-1,0.4-1.5,0.4c-0.8,0.1-1.5-0.2-2.1-0.8
		c-0.5-0.6-0.8-1.5-0.7-2.3v-4.8h1.2v4.8c0,0.6,0.1,1.1,0.4,1.6c0.3,0.4,0.8,0.5,1.3,0.5c0.6,0,1.2-0.2,1.7-0.7
		c0.4-0.5,0.7-1.1,0.6-1.8v-4.4L1350.9,448.3z"/>
	<path class="st1" d="M1359,448.6c0.5,0.4,1,0.9,1.2,1.4c0.3,0.7,0.5,1.4,0.4,2.1c0,0.7-0.1,1.5-0.4,2.1c-0.3,0.6-0.7,1.1-1.2,1.4
		c-0.5,0.3-1.2,0.5-1.8,0.5c-0.6,0-1.1-0.1-1.6-0.4c-0.4-0.3-0.8-0.7-1-1.1v4.8h-1.3v-9c0-0.7,0-1.5-0.1-2.2h1.2l0.1,1.5
		c0.2-0.5,0.5-0.9,1-1.2c0.5-0.3,1.1-0.5,1.7-0.4C1357.8,448,1358.5,448.2,1359,448.6z M1358.8,454.4c0.8-1.4,0.8-3.1,0-4.4
		c-0.4-0.5-1.1-0.8-1.8-0.8c-0.7,0-1.3,0.2-1.8,0.8c-0.8,1.4-0.8,3.1,0,4.5c0.4,0.5,1.1,0.8,1.8,0.8
		C1357.7,455.2,1358.3,454.9,1358.8,454.4L1358.8,454.4z"/>
	<path class="st1" d="M1368.3,448.6c0.5,0.4,1,0.9,1.2,1.4c0.3,0.7,0.5,1.4,0.4,2.1c0,0.7-0.1,1.5-0.4,2.1c-0.5,1.2-1.7,1.9-3,1.9
		c-0.6,0-1.1-0.1-1.6-0.4c-0.4-0.3-0.8-0.7-1-1.1v4.8h-1.3v-9c0-0.7,0-1.5-0.1-2.2h1.2l0.1,1.5c0.2-0.5,0.5-0.9,1-1.2
		c0.5-0.3,1.1-0.5,1.7-0.4C1367.2,448,1367.8,448.2,1368.3,448.6z M1368.1,454.4c0.8-1.4,0.8-3.1,0-4.4c-0.4-0.5-1.1-0.8-1.8-0.8
		c-0.7,0-1.3,0.2-1.8,0.8c-0.8,1.4-0.8,3.1,0,4.5c0.4,0.5,1.1,0.8,1.8,0.8C1367,455.2,1367.6,454.9,1368.1,454.4L1368.1,454.4z"/>
	<path class="st1" d="M1378.7,448.3l-3.7,8.5c-0.3,0.8-0.8,1.5-1.4,2c-0.6,0.4-1.4,0.7-2.1,0.9l-0.3-1c0.6-0.1,1.2-0.3,1.7-0.7
		c0.4-0.3,0.7-0.8,0.9-1.3l0.3-0.7l-3.3-7.7h1.3l2.6,6.4l2.7-6.4L1378.7,448.3z"/>
	<path class="st0" d="M1517.2,468.1h-86c-6.6,0-12-5.4-12-12v-10c0-6.6,5.4-12,12-12h86c6.6,0,12,5.4,12,12v10
		C1529.2,462.7,1523.9,468.1,1517.2,468.1z"/>
	<path class="st1" d="M1464.2,445h4.4c1-0.1,1.9,0.2,2.7,0.8c0.7,0.6,1,1.4,1,2.3c0,0.9-0.3,1.7-1,2.3c-0.8,0.6-1.7,0.9-2.7,0.8
		h-3.1v4.9h-1.3L1464.2,445z M1468.5,450.1c0.7,0,1.3-0.1,1.8-0.5c0.4-0.4,0.7-1,0.6-1.5c0-0.6-0.2-1.1-0.6-1.5
		c-0.5-0.4-1.2-0.6-1.8-0.5h-3v4.1H1468.5z"/>
	<path class="st1" d="M1480.6,448.3v7.8h-1.2v-1.4c-0.2,0.5-0.6,0.8-1,1.1c-0.5,0.2-1,0.4-1.5,0.4c-0.8,0.1-1.5-0.2-2.1-0.8
		c-0.5-0.7-0.8-1.5-0.7-2.3v-4.8h1.3v4.8c0,0.6,0.1,1.1,0.4,1.6c0.3,0.4,0.8,0.5,1.3,0.5c0.6,0,1.2-0.2,1.7-0.7
		c0.4-0.5,0.7-1.1,0.6-1.8v-4.4L1480.6,448.3z"/>
	<path class="st1" d="M1490,448.3v7.7c0.2,1.7-1,3.3-2.7,3.5c-0.3,0-0.6,0-0.8,0c-1.1,0-2.2-0.3-3.1-0.8l0.2-1
		c0.4,0.3,0.9,0.5,1.4,0.6c0.5,0.1,1,0.2,1.4,0.2c0.6,0,1.2-0.2,1.7-0.6c0.4-0.5,0.6-1.1,0.6-1.8v-1.9c-0.2,0.5-0.6,0.9-1.1,1.1
		c-0.5,0.3-1.1,0.4-1.6,0.4c-0.6,0-1.3-0.2-1.8-0.5c-0.5-0.3-1-0.8-1.2-1.4c-0.6-1.3-0.6-2.8,0-4.1c0.3-0.6,0.7-1,1.2-1.4
		c0.6-0.3,1.2-0.5,1.8-0.5c0.6,0,1.1,0.1,1.6,0.4c0.5,0.3,0.8,0.7,1.1,1.1v-1.4L1490,448.3z M1488.1,454c0.9-1.2,0.9-2.9,0-4.1
		c-0.4-0.5-1.1-0.8-1.8-0.8c-0.7,0-1.3,0.2-1.8,0.8c-0.9,1.2-0.9,2.9,0,4.1c0.5,0.5,1.1,0.8,1.8,0.8
		C1487,454.8,1487.6,454.5,1488.1,454L1488.1,454z"/>
	<path class="st0" d="M1639.9,466.8h-86c-6.6,0-12-5.4-12-12l0,0v-10c0-6.6,5.4-12,12-12h86c6.6,0,12,5.4,12,12v10
		C1651.9,461.4,1646.6,466.8,1639.9,466.8L1639.9,466.8z"/>
	<path class="st1" d="M1585.3,443.7h1.3v11h-1.3v-5.1h-6.6v5.1h-1.3v-11h1.3v4.9h6.6V443.7z"/>
	<path class="st1" d="M1596.1,446.9v7.8h-1.2v-1.4c-0.2,0.5-0.6,0.9-1,1.1c-0.5,0.3-1,0.4-1.6,0.4c-0.6,0-1.3-0.2-1.8-0.5
		c-0.5-0.3-1-0.8-1.2-1.4c-0.3-0.7-0.4-1.4-0.4-2.1c0-0.7,0.1-1.5,0.4-2.1c0.3-0.6,0.7-1.1,1.2-1.4c0.5-0.3,1.2-0.5,1.8-0.5
		c0.6,0,1.1,0.1,1.6,0.4c0.4,0.3,0.8,0.7,1,1.1v-1.4H1596.1z M1594.2,453c0.5-0.7,0.7-1.4,0.6-2.2c0.1-0.8-0.2-1.6-0.6-2.2
		c-0.4-0.5-1.1-0.8-1.8-0.8c-0.7,0-1.4,0.3-1.8,0.8c-0.5,0.6-0.7,1.4-0.6,2.2c-0.1,0.8,0.2,1.6,0.6,2.2c0.4,0.5,1.1,0.8,1.8,0.8
		C1593.1,453.9,1593.8,453.5,1594.2,453L1594.2,453z"/>
	<path class="st1" d="M1604.2,447.3c0.5,0.4,1,0.8,1.2,1.4c0.3,0.7,0.4,1.4,0.4,2.1c0,0.7-0.1,1.5-0.4,2.1c-0.5,1.2-1.7,1.9-3.1,1.9
		c-0.6,0-1.1-0.1-1.6-0.4c-0.4-0.3-0.8-0.7-1-1.1v4.8h-1.2v-9c0-0.7,0-1.5-0.1-2.2h1.2l0.1,1.5c0.2-0.5,0.5-1,1-1.2
		c0.5-0.3,1.1-0.5,1.7-0.4C1603.1,446.7,1603.7,446.9,1604.2,447.3z M1604,453c0.5-0.6,0.7-1.4,0.6-2.2c0-0.8-0.2-1.6-0.6-2.2
		c-0.4-0.5-1.1-0.8-1.8-0.8c-0.7,0-1.4,0.2-1.8,0.8c-0.5,0.6-0.7,1.4-0.6,2.2c0,0.8,0.2,1.6,0.6,2.2c0.9,1,2.4,1,3.4,0.1
		C1603.9,453.1,1603.9,453.1,1604,453L1604,453z"/>
	<path class="st1" d="M1613.5,447.3c0.5,0.4,1,0.8,1.2,1.4c0.3,0.7,0.5,1.4,0.4,2.1c0,0.7-0.1,1.5-0.4,2.1c-0.3,0.6-0.7,1.1-1.2,1.4
		c-0.5,0.3-1.2,0.5-1.8,0.5c-0.6,0-1.1-0.1-1.6-0.4c-0.4-0.3-0.8-0.7-1-1.1v4.8h-1.3v-9c0-0.7,0-1.5-0.1-2.2h1.2l0.1,1.5
		c0.2-0.5,0.5-1,1-1.2c0.5-0.3,1.1-0.5,1.7-0.4C1612.4,446.7,1613,446.9,1613.5,447.3L1613.5,447.3z M1613.3,453
		c0.5-0.6,0.7-1.4,0.6-2.2c0-0.8-0.2-1.6-0.6-2.2c-0.9-1-2.4-1.1-3.4-0.2c-0.1,0.1-0.1,0.1-0.2,0.2c-0.5,0.6-0.7,1.4-0.6,2.2
		c0,0.8,0.2,1.6,0.6,2.2c0.9,1,2.4,1,3.4,0.1C1613.2,453.1,1613.3,453.1,1613.3,453L1613.3,453z"/>
	<path class="st1" d="M1623.9,446.9l-3.7,8.5c-0.3,0.8-0.8,1.4-1.4,2c-0.6,0.4-1.4,0.7-2.2,0.9l-0.3-1c0.6-0.1,1.2-0.3,1.7-0.7
		c0.4-0.3,0.7-0.8,0.9-1.3l0.3-0.7l-3.3-7.7h1.3l2.6,6.5l2.7-6.5L1623.9,446.9z"/>
	<path class="st0" d="M1584.9,424.4h-86c-6.6,0-12-5.4-12-12v-10c0-6.6,5.4-12,12-12h86c6.6,0,12,5.4,12,12v10
		C1596.9,419,1591.6,424.4,1584.9,424.4z"/>
	<path class="st1" d="M1524.4,412.4h-1.4l-1.4-3.7c-0.1-0.4-0.4-0.7-0.7-0.9c-0.4-0.2-0.8-0.2-1.2-0.2h-2.8v4.8h-1.3v-11.1h4.4
		c1-0.1,1.9,0.2,2.7,0.8c0.7,0.6,1,1.4,1,2.3c0,0.7-0.2,1.3-0.6,1.8c-0.4,0.5-1,0.9-1.6,1c0.3,0,0.6,0.2,0.8,0.4
		c0.3,0.3,0.5,0.6,0.6,1L1524.4,412.4z M1520,406.5c1.7,0,2.6-0.7,2.6-2.1c0-0.6-0.2-1.1-0.6-1.5c-0.6-0.4-1.2-0.6-1.9-0.5h-3v4.1
		H1520z"/>
	<path class="st1" d="M1532.9,404.6v7.8h-1.2v-1.4c-0.2,0.5-0.6,0.8-1,1.1c-0.5,0.3-1,0.4-1.5,0.4c-0.8,0.1-1.5-0.2-2.1-0.8
		c-0.5-0.6-0.8-1.5-0.7-2.3v-4.8h1.3v4.8c0,0.6,0.1,1.1,0.4,1.6c0.3,0.4,0.8,0.5,1.3,0.5c0.6,0,1.2-0.2,1.7-0.7
		c0.4-0.5,0.7-1.1,0.6-1.8v-4.4L1532.9,404.6z"/>
	<path class="st1" d="M1542,407.5v4.9h-1.3v-4.8c0-0.6-0.1-1.1-0.4-1.6c-0.4-0.4-0.9-0.5-1.4-0.5c-0.6,0-1.3,0.2-1.7,0.7
		c-0.4,0.5-0.7,1.1-0.7,1.8v4.5h-1.3v-5.6c0-0.7,0-1.5-0.1-2.2h1.2l0.1,1.4c0.2-0.5,0.6-0.9,1.1-1.2c0.5-0.3,1.1-0.4,1.6-0.4
		C1541.1,404.4,1542,405.4,1542,407.5L1542,407.5z"/>
	<path class="st1" d="M1551.1,407.5v4.9h-1.2v-4.8c0-0.6-0.1-1.1-0.4-1.6c-0.4-0.4-0.9-0.5-1.4-0.5c-0.6,0-1.3,0.2-1.7,0.7
		c-0.4,0.5-0.7,1.1-0.7,1.8v4.5h-1.3v-5.6c0-0.7,0-1.5-0.1-2.2h1.2l0.1,1.4c0.2-0.5,0.6-0.9,1.1-1.2c0.5-0.3,1.1-0.4,1.6-0.4
		C1550.2,404.4,1551.1,405.4,1551.1,407.5z"/>
	<path class="st1" d="M1553.3,401.3h1.5v1.4h-1.5V401.3z M1553.5,412.4v-7.8h1.3v7.8H1553.5z"/>
	<path class="st1" d="M1563.9,407.5v4.9h-1.3v-4.8c0-0.6-0.1-1.1-0.4-1.6c-0.4-0.4-0.9-0.5-1.4-0.5c-0.6,0-1.3,0.2-1.7,0.7
		c-0.4,0.5-0.7,1.1-0.7,1.8v4.5h-1.2v-5.6c0-0.7,0-1.5-0.1-2.2h1.2l0.1,1.4c0.2-0.5,0.6-0.9,1.1-1.2c0.5-0.3,1.1-0.4,1.6-0.4
		C1563,404.4,1563.9,405.4,1563.9,407.5L1563.9,407.5z"/>
	<path class="st1" d="M1573.2,404.6v7.8c0.2,1.7-1,3.3-2.7,3.5c-0.3,0-0.5,0-0.8,0c-1.1,0-2.1-0.2-3.1-0.8l0.2-1
		c0.4,0.3,0.9,0.5,1.4,0.6c0.5,0.1,1,0.2,1.4,0.2c0.6,0,1.2-0.2,1.7-0.6c0.4-0.5,0.6-1.1,0.6-1.8v-1.9c-0.2,0.5-0.6,0.9-1,1.2
		c-0.5,0.3-1.1,0.4-1.6,0.4c-0.6,0-1.3-0.2-1.8-0.5c-0.5-0.3-1-0.8-1.2-1.4c-0.6-1.3-0.6-2.8,0-4.1c0.3-0.6,0.7-1,1.2-1.4
		c0.6-0.3,1.2-0.5,1.8-0.5c0.6,0,1.1,0.1,1.6,0.4c0.5,0.3,0.8,0.7,1.1,1.1v-1.4H1573.2z M1571.3,410.4c0.5-0.6,0.7-1.3,0.7-2.1
		c0-0.7-0.2-1.5-0.7-2.1c-0.4-0.5-1.1-0.8-1.8-0.8c-0.7,0-1.3,0.2-1.8,0.8c-0.5,0.6-0.7,1.3-0.7,2.1c0,0.7,0.2,1.5,0.7,2.1
		c0.5,0.5,1.1,0.8,1.8,0.8C1570.2,411.2,1570.9,410.9,1571.3,410.4z"/>
	<path class="st0" d="M1455.9,420.7h-86c-6.6,0-12-5.4-12-12v-10c0-6.6,5.4-12,12-12h86c6.6,0,12,5.4,12,12v10
		C1467.9,415.3,1462.6,420.7,1455.9,420.7z"/>
	<path class="st1" d="M1404.7,402.9v5.1c-0.5,0.3-1.1,0.4-1.7,0.5c-0.7,0.1-1.4,0.2-2.2,0.2c-1,0-2-0.2-2.8-0.7
		c-0.8-0.4-1.4-1.1-1.8-2c-0.4-0.9-0.7-2-0.6-3c0-1,0.2-2.1,0.6-3c0.4-0.8,1-1.5,1.8-1.9c0.8-0.5,1.8-0.7,2.8-0.7
		c0.7,0,1.4,0.1,2.1,0.4c0.6,0.2,1.2,0.6,1.7,1l-0.5,1c-0.5-0.4-1-0.8-1.6-1c-0.6-0.2-1.1-0.3-1.7-0.3c-1.1-0.1-2.1,0.4-2.9,1.2
		c-1.3,2.1-1.3,4.7,0,6.8c0.8,0.8,1.9,1.3,3,1.2c0.9,0,1.8-0.1,2.7-0.4v-3.4h-2.8v-1L1404.7,402.9z"/>
	<path class="st1" d="M1411.5,400.8v1.1c-0.3-0.1-0.5-0.1-0.8-0.1c-0.6,0-1.3,0.2-1.7,0.7c-0.4,0.5-0.6,1.1-0.6,1.7v4.5h-1.2V403
		c0-0.7,0-1.5-0.1-2.2h1.2l0.1,1.5c0.2-0.5,0.5-0.9,1-1.2c0.4-0.3,1-0.4,1.5-0.4C1411.1,400.7,1411.3,400.7,1411.5,400.8
		L1411.5,400.8z"/>
	<path class="st1" d="M1419.5,400.9v7.8h-1.2v-1.4c-0.2,0.5-0.6,0.9-1,1.1c-1.1,0.6-2.4,0.5-3.4-0.1c-0.5-0.3-1-0.8-1.2-1.4
		c-0.6-1.4-0.6-2.9,0-4.3c0.3-0.6,0.7-1.1,1.2-1.4c0.5-0.3,1.2-0.5,1.8-0.5c0.6,0,1.1,0.1,1.6,0.4c0.4,0.3,0.8,0.7,1,1.1v-1.4
		H1419.5z M1417.7,407c0.4-0.7,0.7-1.4,0.6-2.2c0.1-0.8-0.2-1.6-0.6-2.2c-0.9-1-2.4-1.1-3.4-0.2c-0.1,0.1-0.1,0.1-0.2,0.2
		c-0.5,0.6-0.7,1.4-0.7,2.2c-0.1,0.8,0.2,1.6,0.6,2.2c0.4,0.5,1.1,0.8,1.8,0.8C1416.6,407.8,1417.2,407.5,1417.7,407L1417.7,407z"/>
	<path class="st1" d="M1421.5,407.8l0.4-0.9c0.4,0.3,0.8,0.6,1.3,0.7c0.5,0.2,1,0.2,1.5,0.2c0.5,0,0.9-0.1,1.3-0.3
		c0.3-0.2,0.5-0.5,0.5-0.9c0-0.3-0.1-0.5-0.3-0.7c-0.3-0.2-0.6-0.4-1-0.4l-1.3-0.3c-0.6-0.1-1.1-0.4-1.5-0.8
		c-0.4-0.4-0.5-0.8-0.5-1.3c0-0.7,0.3-1.3,0.8-1.7c0.6-0.5,1.4-0.7,2.2-0.6c0.5,0,1.1,0.1,1.6,0.3c0.5,0.2,0.9,0.4,1.2,0.8l-0.4,0.9
		c-0.7-0.6-1.5-0.9-2.4-0.9c-0.5,0-0.9,0.1-1.3,0.3c-0.3,0.2-0.5,0.5-0.4,0.9c0,0.3,0.1,0.6,0.3,0.8c0.3,0.2,0.6,0.4,0.9,0.4
		l1.3,0.3c0.6,0.1,1.2,0.4,1.6,0.8c0.4,0.4,0.5,0.9,0.5,1.4c0,0.6-0.3,1.2-0.8,1.6c-0.7,0.4-1.4,0.6-2.2,0.6
		C1423.5,408.8,1422.4,408.5,1421.5,407.8L1421.5,407.8z"/>
	<path class="st1" d="M1429.2,407.8l0.4-0.9c0.4,0.3,0.8,0.6,1.3,0.7c0.5,0.2,1,0.2,1.5,0.2c0.5,0,0.9-0.1,1.3-0.3
		c0.3-0.2,0.5-0.5,0.5-0.9c0-0.3-0.1-0.6-0.3-0.7c-0.3-0.2-0.6-0.4-1-0.4l-1.3-0.3c-0.6-0.1-1.1-0.4-1.5-0.8
		c-0.4-0.4-0.5-0.8-0.5-1.3c0-0.7,0.3-1.3,0.8-1.7c0.6-0.5,1.4-0.7,2.2-0.6c0.5,0,1.1,0.1,1.6,0.3c0.5,0.2,0.9,0.4,1.2,0.8l-0.4,0.9
		c-0.7-0.6-1.5-0.9-2.4-0.9c-0.5,0-0.9,0.1-1.3,0.3c-0.3,0.2-0.5,0.5-0.4,0.9c0,0.3,0.1,0.6,0.3,0.8c0.3,0.2,0.6,0.4,0.9,0.4
		l1.3,0.3c0.6,0.1,1.2,0.4,1.6,0.8c0.4,0.4,0.6,0.9,0.5,1.4c0,0.6-0.3,1.3-0.8,1.6c-0.7,0.4-1.4,0.6-2.2,0.6
		C1431.2,408.8,1430.1,408.5,1429.2,407.8L1429.2,407.8z"/>
	<path class="st0" d="M1518.9,378.3h-86c-6.6,0-12-5.4-12-12v-10c0-6.6,5.4-12,12-12h86c6.6,0,12,5.4,12,12v10
		C1530.9,372.9,1525.6,378.3,1518.9,378.3z"/>
	<path class="st1" d="M1463.7,365.7c-0.8-0.5-1.4-1.2-1.8-2c-0.4-0.9-0.6-2-0.6-3c0-1,0.2-2.1,0.6-3c0.4-0.8,1-1.5,1.8-2
		c0.8-0.5,1.8-0.7,2.7-0.7c0.7,0,1.4,0.1,2.1,0.4c0.6,0.2,1.2,0.6,1.7,1l-0.5,1c-0.5-0.4-1-0.8-1.6-1c-0.5-0.2-1.1-0.3-1.7-0.3
		c-1.1-0.1-2.1,0.4-2.8,1.2c-1.3,2-1.3,4.7,0,6.7c0.7,0.8,1.7,1.2,2.8,1.2c0.6,0,1.2-0.1,1.7-0.3c0.6-0.2,1.1-0.6,1.6-1l0.5,1
		c-0.5,0.5-1,0.8-1.7,1c-0.7,0.2-1.4,0.4-2.1,0.4C1465.5,366.4,1464.5,366.2,1463.7,365.7L1463.7,365.7z"/>
	<path class="st1" d="M1478.6,358.5v7.8h-1.2v-1.4c-0.2,0.5-0.6,0.8-1,1.1c-0.5,0.3-1,0.4-1.5,0.4c-0.8,0.1-1.5-0.2-2.1-0.8
		c-0.5-0.6-0.8-1.5-0.7-2.3v-4.9h1.3v4.8c0,0.6,0.1,1.1,0.4,1.6c0.3,0.4,0.8,0.5,1.3,0.5c0.6,0,1.2-0.2,1.7-0.7
		c0.4-0.5,0.7-1.1,0.6-1.8v-4.4L1478.6,358.5z"/>
	<path class="st1" d="M1482.7,359.5v4.3c0,0.4,0.1,0.9,0.4,1.2c0.3,0.2,0.6,0.4,1,0.4c0.3,0,0.6,0,0.8-0.1v1.1
		c-0.4,0.1-0.7,0.2-1.1,0.2c-0.6,0-1.3-0.2-1.7-0.6c-0.5-0.5-0.7-1.2-0.6-1.9v-4.5h-1.5v-1h1.5v-2l1.2-0.5v2.5h2.2v1L1482.7,359.5z"
		/>
	<path class="st1" d="M1493,362.3h-5.7c0,0.8,0.2,1.6,0.7,2.2c0.5,0.5,1.3,0.8,2,0.8c0.9,0,1.8-0.3,2.5-0.9l0.4,0.9
		c-0.4,0.3-0.8,0.6-1.3,0.8c-0.5,0.2-1.1,0.3-1.6,0.3c-1.1,0.1-2.1-0.3-2.9-1.1c-0.7-0.8-1.1-1.9-1-3c0-0.7,0.1-1.5,0.5-2.1
		c0.3-0.6,0.7-1.1,1.3-1.4c0.6-0.3,1.2-0.5,1.9-0.5c0.9,0,1.8,0.3,2.4,1c0.6,0.8,0.9,1.8,0.9,2.8L1493,362.3z M1488.1,359.9
		c-0.4,0.5-0.7,1-0.8,1.7h4.6c0-0.6-0.2-1.2-0.7-1.7c-0.4-0.4-1-0.6-1.5-0.6C1489.1,359.2,1488.5,359.5,1488.1,359.9z"/>
	<path class="st2" d="M1400.6,476.1c0-2.8,2.2-5,5-5h142.8c2.8,0,5,2.2,5,5s-2.2,5-5,5h-142.7
		C1402.9,481.1,1400.6,478.9,1400.6,476.1L1400.6,476.1z"/>
	<path class="st0" d="M1464.1,189.3h-86c-6.6,0-12-5.4-12-12v-10c0-6.6,5.4-12,12-12h86c6.6,0,12,5.4,12,12v10
		C1476.1,183.9,1470.8,189.3,1464.1,189.3z"/>
	<path class="st1" d="M1395.9,166.2h4.4c1-0.1,1.9,0.2,2.7,0.8c0.7,0.6,1,1.4,1,2.3c0,0.9-0.3,1.7-1,2.3c-0.8,0.6-1.7,0.9-2.7,0.8
		h-3.1v4.9h-1.3L1395.9,166.2z M1400.2,171.3c0.7,0.1,1.3-0.1,1.8-0.5c0.8-0.8,0.8-2.2,0-3c-0.5-0.4-1.2-0.6-1.8-0.5h-3v4.1
		L1400.2,171.3z"/>
	<path class="st1" d="M1412.3,169.4v7.8h-1.2v-1.4c-0.2,0.5-0.6,0.8-1,1.1c-0.5,0.2-1,0.4-1.5,0.4c-0.8,0.1-1.5-0.2-2.1-0.8
		c-0.5-0.6-0.8-1.5-0.7-2.3v-4.8h1.3v4.8c0,0.6,0.1,1.1,0.4,1.6c0.3,0.4,0.8,0.5,1.3,0.5c0.6,0,1.2-0.2,1.7-0.7
		c0.4-0.5,0.7-1.1,0.6-1.8v-4.4L1412.3,169.4z"/>
	<path class="st1" d="M1420.4,169.8c0.5,0.4,1,0.9,1.2,1.4c0.3,0.7,0.5,1.4,0.4,2.1c0,0.7-0.1,1.5-0.4,2.1c-0.3,0.6-0.7,1.1-1.2,1.4
		c-0.5,0.3-1.2,0.5-1.8,0.5c-0.6,0-1.1-0.1-1.6-0.4c-0.4-0.3-0.8-0.7-1-1.1v4.8h-1.3v-9c0-0.7,0-1.5-0.1-2.2h1.2l0.1,1.5
		c0.2-0.5,0.5-0.9,1-1.2c0.5-0.3,1.1-0.5,1.7-0.4C1419.3,169.2,1419.9,169.4,1420.4,169.8L1420.4,169.8z M1420.2,175.5
		c0.5-0.6,0.7-1.4,0.6-2.2c0-0.8-0.2-1.6-0.6-2.2c-0.4-0.5-1.1-0.8-1.8-0.8c-0.7,0-1.3,0.2-1.8,0.8c-0.8,1.4-0.8,3.1,0,4.4
		c0.9,1,2.4,1.1,3.4,0.2C1420.1,175.6,1420.1,175.6,1420.2,175.5L1420.2,175.5z"/>
	<path class="st1" d="M1429.8,169.8c0.5,0.4,1,0.9,1.2,1.4c0.3,0.7,0.5,1.4,0.4,2.1c0,0.7-0.1,1.5-0.4,2.1c-0.5,1.2-1.7,1.9-3,1.9
		c-0.6,0-1.1-0.1-1.6-0.4c-0.4-0.3-0.8-0.7-1-1.1v4.8h-1.3v-9c0-0.7,0-1.5-0.1-2.2h1.2l0.1,1.5c0.2-0.5,0.5-0.9,1-1.2
		c0.5-0.3,1.1-0.5,1.7-0.4C1428.6,169.2,1429.2,169.4,1429.8,169.8L1429.8,169.8z M1429.5,175.5c0.8-1.4,0.8-3.1,0-4.4
		c-0.4-0.5-1.1-0.8-1.8-0.8c-0.7,0-1.3,0.2-1.8,0.8c-0.8,1.4-0.8,3.1,0,4.4c0.4,0.5,1.1,0.8,1.8,0.8
		C1428.4,176.4,1429.1,176.1,1429.5,175.5z"/>
	<path class="st1" d="M1433.2,166.1h1.5v1.4h-1.5V166.1z M1433.4,177.2v-7.8h1.2v7.8H1433.4z"/>
	<path class="st1" d="M1443.6,173.3h-5.7c-0.1,0.8,0.2,1.6,0.7,2.3c0.5,0.5,1.3,0.8,2,0.8c0.9,0,1.8-0.3,2.5-0.9l0.4,0.9
		c-0.4,0.3-0.8,0.6-1.3,0.8c-0.5,0.2-1.1,0.3-1.6,0.3c-1.1,0.1-2.1-0.3-2.9-1.1c-0.7-0.8-1.1-1.9-1-3c0-0.7,0.1-1.5,0.5-2.1
		c0.3-0.6,0.7-1.1,1.3-1.4c0.6-0.3,1.2-0.5,1.9-0.5c0.9-0.1,1.8,0.3,2.4,1c0.6,0.8,0.9,1.8,0.9,2.8L1443.6,173.3z M1438.7,170.8
		c-0.4,0.5-0.7,1-0.8,1.7h4.6c0-0.6-0.3-1.2-0.7-1.7c-0.4-0.4-1-0.6-1.5-0.6C1439.7,170.2,1439.1,170.4,1438.7,170.8z"/>
	<path class="st1" d="M1445,176.4l0.4-0.9c0.4,0.3,0.8,0.6,1.3,0.7c0.5,0.2,1,0.2,1.5,0.2c0.5,0,0.9-0.1,1.3-0.3
		c0.3-0.2,0.5-0.5,0.5-0.9c0-0.3-0.1-0.6-0.3-0.8c-0.3-0.2-0.6-0.4-1-0.4l-1.3-0.3c-0.6-0.1-1.1-0.4-1.5-0.8
		c-0.4-0.4-0.5-0.8-0.5-1.3c0-0.7,0.3-1.3,0.8-1.7c0.6-0.5,1.4-0.7,2.2-0.6c0.5,0,1.1,0.1,1.6,0.3c0.5,0.2,0.9,0.4,1.2,0.8l-0.4,0.9
		c-0.7-0.6-1.5-0.9-2.4-0.9c-0.5,0-0.9,0.1-1.3,0.3c-0.3,0.2-0.5,0.5-0.5,0.9c0,0.3,0.1,0.6,0.3,0.8c0.3,0.2,0.6,0.4,0.9,0.4
		l1.3,0.3c0.6,0.1,1.2,0.4,1.6,0.8c0.4,0.4,0.5,0.9,0.5,1.4c0,0.6-0.3,1.2-0.8,1.6c-0.7,0.4-1.4,0.7-2.2,0.6
		C1447,177.4,1445.9,177.1,1445,176.4L1445,176.4z"/>
	<path class="st0" d="M1584.8,189.3h-86c-6.6,0-12-5.4-12-12v-10c0-6.6,5.4-12,12-12h86c6.6,0,12,5.4,12,12v10
		C1596.8,183.9,1591.5,189.3,1584.8,189.3z"/>
	<path class="st1" d="M1527.6,171.5v5.1c-0.5,0.3-1.1,0.5-1.7,0.6c-0.7,0.1-1.4,0.2-2.1,0.2c-1,0-2-0.2-2.8-0.7
		c-0.8-0.4-1.4-1.1-1.8-1.9c-0.8-1.9-0.8-4.1,0-6.1c0.4-0.8,1-1.5,1.8-1.9c0.8-0.5,1.8-0.7,2.8-0.7c0.7,0,1.4,0.1,2.1,0.4
		c0.6,0.2,1.2,0.6,1.7,1.1l-0.5,1c-0.5-0.4-1-0.8-1.6-1c-0.6-0.2-1.1-0.3-1.7-0.3c-1.1-0.1-2.2,0.4-2.9,1.2c-1.4,2.1-1.4,4.7,0,6.8
		c0.8,0.8,1.9,1.3,3,1.2c0.9,0,1.8-0.1,2.7-0.4v-3.4h-2.8v-1L1527.6,171.5z"/>
	<path class="st1" d="M1531.3,176.9c-0.6-0.3-1-0.8-1.3-1.4c-0.6-1.4-0.6-2.9,0-4.3c0.3-0.6,0.7-1.1,1.3-1.4c1.2-0.7,2.7-0.7,3.9,0
		c0.6,0.3,1,0.8,1.3,1.4c0.6,1.4,0.6,2.9,0,4.3c-0.3,0.6-0.7,1.1-1.3,1.4C1534,177.5,1532.5,177.5,1531.3,176.9z M1535.1,175.6
		c0.5-0.7,0.7-1.5,0.6-2.2c0-0.8-0.2-1.6-0.6-2.2c-0.9-1-2.4-1-3.4-0.1c-0.1,0-0.1,0.1-0.1,0.1c-0.5,0.6-0.7,1.4-0.6,2.2
		c-0.1,0.8,0.2,1.6,0.6,2.2c0.4,0.5,1.1,0.8,1.8,0.8C1534,176.4,1534.6,176.1,1535.1,175.6L1535.1,175.6z"/>
	<path class="st1" d="M1539,177.2v-11.4h1.2v11.4H1539z"/>
	<path class="st1" d="M1549.5,165.8v11.4h-1.2v-1.4c-0.2,0.5-0.6,0.9-1,1.1c-0.5,0.3-1,0.4-1.6,0.4c-0.6,0-1.3-0.2-1.8-0.5
		c-0.5-0.4-1-0.9-1.2-1.4c-0.3-0.7-0.4-1.4-0.4-2.1c0-0.7,0.1-1.5,0.4-2.1c0.3-0.6,0.7-1.1,1.2-1.4c0.5-0.3,1.2-0.5,1.8-0.5
		c0.6,0,1.1,0.1,1.6,0.4c0.4,0.3,0.8,0.6,1,1.1v-4.9L1549.5,165.8z M1547.7,175.5c0.8-1.4,0.8-3.1,0-4.4c-0.4-0.5-1.1-0.8-1.8-0.8
		c-0.7,0-1.3,0.2-1.8,0.8c-0.5,0.6-0.7,1.4-0.7,2.2c0,0.8,0.2,1.6,0.7,2.2c0.4,0.5,1.1,0.8,1.8,0.8
		C1546.6,176.4,1547.2,176.1,1547.7,175.5L1547.7,175.5z"/>
	<path class="st1" d="M1558.5,173.3h-5.7c-0.1,0.8,0.2,1.6,0.7,2.3c0.5,0.5,1.3,0.8,2,0.8c0.9,0,1.8-0.3,2.5-0.9l0.4,0.9
		c-0.4,0.3-0.8,0.6-1.3,0.8c-0.5,0.2-1.1,0.3-1.6,0.3c-1.1,0.1-2.1-0.3-2.9-1.1c-0.7-0.8-1.1-1.9-1-3c0-0.7,0.1-1.5,0.5-2.1
		c0.3-0.6,0.7-1.1,1.3-1.4c0.6-0.3,1.2-0.5,1.9-0.5c0.9-0.1,1.8,0.3,2.4,1c0.6,0.8,0.9,1.8,0.9,2.8L1558.5,173.3z M1553.6,170.8
		c-0.4,0.5-0.7,1-0.8,1.7h4.6c0-0.6-0.2-1.2-0.6-1.7c-0.4-0.4-1-0.6-1.5-0.6C1554.6,170.2,1554,170.4,1553.6,170.8z"/>
	<path class="st1" d="M1567.1,172.3v4.9h-1.3v-4.9c0-0.6-0.1-1.1-0.4-1.6c-0.4-0.4-0.9-0.5-1.4-0.5c-0.6,0-1.3,0.2-1.7,0.7
		c-0.5,0.5-0.7,1.1-0.7,1.8v4.5h-1.3v-5.6c0-0.7,0-1.5-0.1-2.2h1.2l0.1,1.4c0.2-0.5,0.6-0.9,1.1-1.2c0.5-0.3,1.1-0.4,1.6-0.4
		C1566.2,169.2,1567.1,170.3,1567.1,172.3z"/>
	<path class="st0" d="M1707.5,188h-86c-6.6,0-12-5.4-12-12v-10c0-6.6,5.4-12,12-12h86c6.6,0,12,5.4,12,12v10
		C1719.5,182.6,1714.2,188,1707.5,188z"/>
	<path class="st1" d="M1649.3,174.7l0.5-1c0.5,0.4,1.1,0.8,1.7,1c0.6,0.2,1.3,0.3,2,0.3c0.7,0,1.4-0.1,2.1-0.5
		c0.5-0.3,0.7-0.9,0.7-1.5c0-0.3-0.1-0.7-0.3-0.9c-0.3-0.2-0.6-0.4-0.9-0.6c-0.4-0.1-0.9-0.3-1.5-0.4c-0.7-0.1-1.4-0.3-2.1-0.6
		c-0.5-0.2-1-0.5-1.3-0.9c-0.4-0.5-0.5-1-0.5-1.6c0-0.6,0.2-1.2,0.5-1.7c0.4-0.5,0.8-0.9,1.4-1.1c0.7-0.3,1.4-0.4,2.1-0.4
		c0.7,0,1.5,0.1,2.1,0.4c0.6,0.2,1.2,0.5,1.7,1l-0.5,1c-0.5-0.4-1-0.8-1.6-1c-0.6-0.2-1.2-0.3-1.8-0.3c-0.7,0-1.4,0.2-2,0.6
		c-0.5,0.4-0.7,0.9-0.7,1.5c0,0.5,0.2,1,0.6,1.3c0.6,0.4,1.3,0.6,2,0.7c1,0.2,1.7,0.4,2.2,0.6c0.5,0.2,1,0.5,1.4,0.9
		c0.4,0.4,0.6,1,0.5,1.6c0,0.6-0.2,1.2-0.5,1.6c-0.4,0.5-0.9,0.9-1.4,1.1c-0.7,0.3-1.4,0.4-2.2,0.4
		C1652,176.1,1650.5,175.6,1649.3,174.7L1649.3,174.7z"/>
	<path class="st1" d="M1661.1,169.1v4.3c0,0.4,0.1,0.9,0.3,1.2c0.3,0.2,0.6,0.4,1,0.4c0.3,0,0.6,0,0.8-0.1v1.1
		c-0.4,0.1-0.7,0.2-1.1,0.1c-0.6,0-1.3-0.2-1.8-0.6c-0.5-0.5-0.7-1.2-0.6-1.9v-4.4h-1.5v-1h1.5v-2l1.3-0.4v2.4h2.2v1H1661.1z"/>
	<path class="st1" d="M1664.7,164.8h1.6v1.4h-1.5L1664.7,164.8z M1664.9,175.9v-7.8h1.2v7.8H1664.9z"/>
	<path class="st1" d="M1669.9,175.5c-0.6-0.3-1-0.8-1.3-1.4c-0.6-1.4-0.6-2.9,0-4.3c0.3-0.6,0.8-1.1,1.3-1.4c0.6-0.3,1.3-0.5,2-0.5
		c0.5,0,1,0.1,1.5,0.3c0.5,0.2,0.9,0.4,1.2,0.8l-0.4,0.9c-0.3-0.3-0.7-0.5-1.1-0.7c-0.4-0.1-0.7-0.2-1.1-0.2c-0.7,0-1.4,0.3-1.9,0.8
		c-0.5,0.6-0.7,1.4-0.7,2.2c-0.1,0.8,0.2,1.6,0.7,2.2c0.5,0.5,1.2,0.8,1.9,0.8c0.4,0,0.8-0.1,1.1-0.2c0.4-0.2,0.8-0.4,1.1-0.7
		l0.4,0.9c-0.4,0.3-0.8,0.6-1.2,0.7c-0.5,0.2-1,0.3-1.6,0.3C1671.1,176.1,1670.4,175.9,1669.9,175.5L1669.9,175.5z"/>
	<path class="st1" d="M1683.2,175.9h-1.7l-4-3.8v3.8h-1.3v-11.4h1.3v7.2l3.7-3.6h1.6l-3.9,3.7L1683.2,175.9z"/>
	<path class="st0" d="M1652.5,145.6h-86c-6.6,0-12-5.4-12-12v-10c0-6.6,5.4-12,12-12h86c6.6,0,12,5.4,12,12v10
		C1664.5,140.2,1659.2,145.6,1652.5,145.6z"/>
	<path class="st1" d="M1592,133.6v-11.1h6.8v1.1h-5.5v3.8h5.3v1.1h-5.3v5.1H1592z"/>
	<path class="st1" d="M1607,129.6h-5.7c0,0.8,0.2,1.6,0.7,2.2c0.5,0.5,1.3,0.8,2,0.8c0.9,0,1.8-0.3,2.5-0.9l0.4,0.9
		c-0.4,0.3-0.8,0.6-1.3,0.8c-0.5,0.2-1.1,0.3-1.6,0.3c-1.1,0.1-2.1-0.3-2.9-1.1c-0.7-0.8-1.1-1.9-1-3c0-0.7,0.1-1.5,0.5-2.1
		c0.3-0.6,0.7-1.1,1.3-1.4c0.6-0.4,1.2-0.5,1.9-0.5c0.9-0.1,1.8,0.3,2.4,1c0.6,0.8,0.9,1.8,0.9,2.8L1607,129.6z M1602.1,127.2
		c-0.4,0.5-0.7,1-0.8,1.7h4.6c0-0.6-0.2-1.2-0.6-1.7c-0.4-0.4-1-0.6-1.5-0.6C1603.1,126.5,1602.5,126.8,1602.1,127.2z"/>
	<path class="st1" d="M1610.5,126.8v4.2c0,0.4,0.1,0.9,0.3,1.2c0.3,0.2,0.6,0.4,1,0.4c0.3,0,0.6,0,0.8-0.1v1.1
		c-0.4,0.1-0.7,0.2-1.1,0.2c-0.6,0-1.3-0.2-1.7-0.6c-0.5-0.5-0.7-1.2-0.6-1.9v-4.4h-1.5v-1h1.6v-2l1.3-0.4v2.4h2.2v1L1610.5,126.8z"
		/>
	<path class="st1" d="M1615.6,133.2c-0.6-0.3-1-0.8-1.3-1.4c-0.3-0.7-0.5-1.4-0.5-2.1c0-0.7,0.1-1.5,0.5-2.1
		c0.3-0.6,0.8-1.1,1.3-1.4c0.6-0.4,1.3-0.5,2-0.5c0.5,0,1,0.1,1.5,0.3c0.5,0.2,0.9,0.4,1.2,0.8l-0.4,0.9c-0.3-0.3-0.7-0.5-1.1-0.7
		c-0.4-0.1-0.7-0.2-1.1-0.2c-0.7,0-1.4,0.3-1.9,0.8c-0.5,0.6-0.7,1.4-0.7,2.2c0,0.8,0.2,1.6,0.7,2.2c0.5,0.5,1.2,0.8,1.9,0.8
		c0.4,0,0.8-0.1,1.1-0.2c0.4-0.2,0.8-0.4,1.1-0.7l0.4,0.9c-0.4,0.3-0.8,0.6-1.2,0.7c-0.5,0.2-1,0.3-1.6,0.3
		C1616.9,133.7,1616.2,133.5,1615.6,133.2L1615.6,133.2z"/>
	<path class="st1" d="M1628.7,128.7v4.9h-1.3v-4.8c0-0.6-0.1-1.1-0.4-1.6c-0.4-0.4-0.9-0.5-1.4-0.5c-0.6,0-1.3,0.2-1.7,0.7
		c-0.4,0.5-0.7,1.1-0.7,1.8v4.5h-1.3v-11.4h1.3v4.9c0.2-0.5,0.6-0.8,1.1-1.1c0.5-0.3,1-0.4,1.6-0.4
		C1627.8,125.6,1628.7,126.6,1628.7,128.7L1628.7,128.7z"/>
	<path class="st0" d="M1523.5,141.9h-86c-6.6,0-12-5.4-12-12v-10c0-6.6,5.4-12,12-12h86c6.6,0,12,5.4,12,12v10
		C1535.5,136.5,1530.2,141.9,1523.5,141.9z"/>
	<path class="st1" d="M1472.3,124.1v5.1c-0.5,0.3-1.1,0.4-1.7,0.6c-0.7,0.1-1.4,0.2-2.2,0.2c-1,0-2-0.2-2.8-0.7
		c-0.8-0.5-1.4-1.2-1.8-2c-0.4-0.9-0.7-2-0.6-3c0-1,0.2-2.1,0.6-3c0.4-0.8,1-1.5,1.8-1.9c0.8-0.5,1.8-0.7,2.8-0.7
		c0.7,0,1.5,0.1,2.1,0.3c0.6,0.2,1.2,0.5,1.7,1l-0.5,1c-0.5-0.4-1-0.8-1.6-1c-0.6-0.2-1.1-0.3-1.7-0.3c-1.1-0.1-2.1,0.4-2.9,1.2
		c-1.3,2.1-1.3,4.7,0,6.8c0.8,0.8,1.9,1.2,3,1.2c0.9,0,1.8-0.1,2.7-0.4v-3.3h-2.8v-1L1472.3,124.1z"/>
	<path class="st1" d="M1479.1,122v1.2c-0.3-0.1-0.5-0.1-0.8-0.1c-0.6,0-1.3,0.2-1.7,0.7c-0.4,0.5-0.6,1.1-0.6,1.7v4.5h-1.3v-5.6
		c0-0.7,0-1.5-0.1-2.2h1.2l0.1,1.4c0.2-0.5,0.5-0.9,1-1.2C1477.6,121.9,1478.4,121.8,1479.1,122L1479.1,122z"/>
	<path class="st1" d="M1487.1,122v7.8h-1.2v-1.4c-0.2,0.5-0.6,0.9-1,1.1c-0.5,0.3-1,0.4-1.6,0.4c-0.6,0-1.3-0.2-1.8-0.5
		c-0.5-0.3-1-0.8-1.2-1.4c-0.3-0.7-0.4-1.4-0.4-2.1c0-0.7,0.1-1.5,0.4-2.1c0.3-0.6,0.7-1.1,1.2-1.4c0.5-0.3,1.2-0.5,1.8-0.5
		c0.6,0,1.1,0.1,1.6,0.4c0.4,0.3,0.8,0.7,1,1.1V122L1487.1,122z M1485.2,128.1c0.4-0.7,0.7-1.4,0.6-2.2c0.1-0.8-0.2-1.6-0.6-2.2
		c-0.4-0.5-1.1-0.8-1.8-0.8c-0.7,0-1.4,0.3-1.8,0.8c-0.5,0.6-0.7,1.4-0.7,2.2c-0.1,0.8,0.2,1.6,0.6,2.2c0.4,0.5,1.1,0.8,1.8,0.8
		C1484.1,128.9,1484.8,128.7,1485.2,128.1L1485.2,128.1z"/>
	<path class="st1" d="M1489.1,129l0.4-0.9c0.4,0.3,0.8,0.6,1.3,0.7c0.5,0.2,1,0.2,1.5,0.2c0.5,0,0.9-0.1,1.3-0.3
		c0.3-0.2,0.5-0.5,0.5-0.9c0-0.3-0.1-0.6-0.3-0.7c-0.3-0.2-0.6-0.4-1-0.4l-1.3-0.3c-0.6-0.1-1.1-0.4-1.5-0.8
		c-0.4-0.4-0.5-0.8-0.5-1.3c0-0.7,0.3-1.3,0.8-1.7c0.6-0.5,1.4-0.7,2.2-0.7c0.5,0,1.1,0.1,1.6,0.3c0.5,0.2,0.9,0.4,1.2,0.8l-0.4,0.9
		c-0.7-0.6-1.5-0.9-2.4-0.9c-0.5,0-0.9,0.1-1.3,0.3c-0.3,0.2-0.5,0.5-0.4,0.9c0,0.3,0.1,0.6,0.3,0.8c0.3,0.2,0.6,0.4,0.9,0.4
		l1.3,0.3c0.6,0.1,1.2,0.4,1.6,0.8c0.4,0.4,0.5,0.9,0.5,1.4c0,0.6-0.3,1.2-0.8,1.6c-0.7,0.4-1.4,0.7-2.2,0.6
		C1491.1,130.1,1489.9,129.7,1489.1,129L1489.1,129z"/>
	<path class="st1" d="M1496.8,129l0.4-0.9c0.4,0.3,0.8,0.5,1.3,0.7c0.5,0.2,1,0.2,1.5,0.2c0.5,0,0.9-0.1,1.3-0.3
		c0.3-0.2,0.5-0.5,0.5-0.9c0-0.3-0.1-0.6-0.3-0.7c-0.3-0.2-0.6-0.4-1-0.4l-1.3-0.3c-0.6-0.1-1.1-0.4-1.5-0.8
		c-0.3-0.4-0.5-0.8-0.5-1.3c0-0.7,0.3-1.3,0.8-1.7c0.6-0.5,1.4-0.7,2.2-0.7c0.5,0,1.1,0.1,1.6,0.3c0.5,0.2,0.9,0.4,1.2,0.8l-0.4,0.9
		c-0.7-0.6-1.5-0.9-2.4-0.9c-0.5,0-0.9,0.1-1.3,0.3c-0.5,0.4-0.6,1.1-0.2,1.6c0,0,0,0.1,0.1,0.1c0.3,0.2,0.6,0.4,0.9,0.4l1.3,0.3
		c0.6,0.1,1.2,0.4,1.6,0.8c0.4,0.4,0.6,0.9,0.5,1.4c0,0.6-0.3,1.2-0.8,1.6c-0.7,0.4-1.4,0.7-2.2,0.6
		C1498.8,130.1,1497.6,129.7,1496.8,129L1496.8,129z"/>
	<path class="st0" d="M1586.5,99.5h-86c-6.6,0-12-5.4-12-12v-10c0-6.6,5.4-12,12-12h86c6.6,0,12,5.4,12,12v10
		C1598.5,94.1,1593.2,99.5,1586.5,99.5z"/>
	<path class="st1" d="M1531.3,86.9c-0.8-0.5-1.4-1.2-1.8-2c-0.4-0.9-0.7-2-0.6-3c0-1,0.2-2.1,0.6-3c0.4-0.8,1-1.5,1.8-2
		c0.8-0.5,1.8-0.7,2.7-0.7c0.7,0,1.4,0.1,2.1,0.3c0.6,0.2,1.2,0.6,1.7,1.1l-0.5,1c-0.5-0.4-1-0.8-1.6-1c-0.5-0.2-1.1-0.3-1.7-0.3
		c-1.1-0.1-2.1,0.4-2.8,1.2c-0.7,1-1.1,2.2-1,3.4c-0.1,1.2,0.3,2.4,1,3.4c0.7,0.8,1.7,1.3,2.8,1.2c0.6,0,1.2-0.1,1.7-0.3
		c0.6-0.2,1.1-0.6,1.6-1l0.5,1c-0.5,0.4-1,0.8-1.7,1c-0.7,0.2-1.4,0.3-2.1,0.3C1533.1,87.5,1532.1,87.3,1531.3,86.9L1531.3,86.9z"/>
	<path class="st1" d="M1546.1,79.7v7.8h-1.2v-1.3c-0.2,0.5-0.6,0.8-1,1.1c-0.5,0.3-1,0.4-1.5,0.4c-0.8,0.1-1.5-0.2-2.1-0.8
		c-0.5-0.6-0.8-1.5-0.7-2.3v-4.8h1.3v4.8c0,0.6,0.1,1.1,0.4,1.6c0.3,0.4,0.8,0.5,1.3,0.5c0.6,0,1.2-0.2,1.7-0.7
		c0.4-0.5,0.7-1.1,0.6-1.8v-4.4L1546.1,79.7z"/>
	<path class="st1" d="M1550.2,80.6v4.3c0,0.4,0.1,0.9,0.3,1.2c0.3,0.2,0.6,0.4,1,0.3c0.3,0,0.6,0,0.8-0.1v1.1
		c-0.4,0.1-0.7,0.2-1.1,0.2c-0.6,0-1.3-0.2-1.7-0.6c-0.5-0.5-0.7-1.2-0.6-1.9v-4.4h-1.5v-1h1.5v-2l1.3-0.4v2.4h2.2v1H1550.2z"/>
	<path class="st1" d="M1560.5,83.5h-5.7c0,0.8,0.2,1.6,0.7,2.2c0.5,0.5,1.3,0.8,2,0.8c0.9,0,1.8-0.3,2.5-0.9l0.4,0.9
		c-0.4,0.3-0.8,0.6-1.3,0.8c-0.5,0.2-1.1,0.3-1.6,0.3c-1.1,0.1-2.1-0.3-2.9-1.1c-0.7-0.8-1.1-1.9-1-3c0-0.7,0.1-1.5,0.5-2.1
		c0.6-1.2,1.8-2,3.2-2c0.9-0.1,1.8,0.3,2.4,1c0.6,0.8,0.9,1.8,0.9,2.8L1560.5,83.5z M1555.6,81c-0.4,0.5-0.7,1-0.8,1.7h4.6
		c0-0.6-0.2-1.2-0.7-1.7c-0.4-0.4-1-0.6-1.5-0.6C1556.6,80.4,1556.1,80.6,1555.6,81L1555.6,81z"/>
	<path class="st2" d="M1466.5,201.3c0-2.8,2.2-5,5-5h142.7c2.8,0,5,2.2,5,5s-2.2,5-5,5h-142.7
		C1468.8,206.3,1466.5,204.1,1466.5,201.3z"/>
	<path class="st36" d="M1529.2,203.3h11.5l18.1,19c0,0-9.6-1.3-12.2-1.3C1545.1,220.9,1529.2,203.3,1529.2,203.3z"/>
	<path class="st37" d="M1512.7,203.3h17l23.1,19c-3.3-0.4-6.6-0.9-9.9-1.7C1539.8,219.8,1512.7,203.3,1512.7,203.3z"/>
	<path class="st38" d="M1501.2,203.3h11.5c0,0,33,16.7,37.2,17.9c1.9,0.5-13.9,1.1-22.8-1.7C1516.3,216.1,1504.9,207.8,1501.2,203.3
		L1501.2,203.3z"/>
	<path class="st39" d="M1491.4,215.6h-16.5c0,0-7,0.3-7-7.3c0-5.3,10.3-4.8,10.3-4.8l23-0.5c0,0,19.3,10.7,26.5,14.5
		c5.7-0.7,11.4,0.4,16.5,3l33.5,3.3c0,0,8.3-18.5,16.8-20.7s19.5,0,19.5,0c1.7,1.3,2.5,3.4,2,5.5c-0.8,3.5-3.3,4.3-4,4.4
		s-7.5,0-7.5,0s-3.3,11-6,15.9c4.6,19.4,1.5,28.5,2.3,32.5s39,56.5,39,56.5l-31.8,21.8c0,0-65.3-88.5-67.8-95
		c-1.2-3-13.3-7.1-24.3-13.2C1507.4,226.7,1499.3,221.4,1491.4,215.6L1491.4,215.6z"/>
	<path class="st40" d="M1482.8,215.6l-8.2,0.1c0,0-7-1-6.7-6.5h10.3C1478.3,209.2,1481.8,209.9,1482.8,215.6L1482.8,215.6z"/>
	<path class="st40" d="M1605.1,213l2.7-5.1c0,0,6-1,7.6-0.1s-0.8,4.4-2.8,5.2L1605.1,213z"/>
</g>
<path class="st41" d="M1559.9,271.7l37.8-22.2l2.8,4.3l-37.9,21.3L1559.9,271.7z"/>
<path class="st33" d="M1559.1,277l44.4-25.1c0,0,69.8,78,77.5,94.7c15-10.3,82,0,82,0l-43.7,52.3c0,0-34.7,9.3-48.7,6.7
	c-5.5-1-33.6-27.7-59.3-59C1584,313.3,1559.1,277,1559.1,277L1559.1,277z"/>
<image style="overflow:visible;enable-background:new    ;" width="433" height="332" xlink:href="embedded-image-1.png"  transform="matrix(0.48 0 0 0.48 221.8749 300.72)">
</image>
<path class="st1" d="M429.6,301.1V460H222V301.1H429.6z M436.6,294.1H215V467h221.6V294.1z"/>
<image style="overflow:visible;enable-background:new    ;" width="432" height="332" xlink:href="embedded-image-3.png"  transform="matrix(0.48 0 0 0.48 458.5149 300.72)">
</image>
<path class="st1" d="M660.4,301.1V460H458.5V301.1H660.4z M667.4,294.1H451.5V467h215.8V294.1z"/>
<path class="st42" d="M159.4,276.4l36.4-36.4h56c0,0,1.9,12.7-7.9,14.2s-25,0.6-25,0.6s12.1,0.9,12,11.4c-0.1,7.3-4.4,9.8-10.1,10.1
	S159.4,276.4,159.4,276.4L159.4,276.4z"/>
<image style="overflow:visible;enable-background:new    ;" width="377" height="301" xlink:href="embedded-image-2.png"  transform="matrix(0.48 0 0 0.48 184.9149 90.48)">
</image>
<path class="st1" d="M365.8,90.5v144.3H185.2V90.5L365.8,90.5z M372.8,83.5H178.2v158.3h194.6V83.5z"/>
<linearGradient id="SVGID_11_" gradientUnits="userSpaceOnUse" x1="78.6838" y1="328.3897" x2="200.9144" y2="450.6304" gradientTransform="matrix(1 0 0 -1 -4.65 637.83)">
	<stop  offset="0" style="stop-color:#FFFFFF;stop-opacity:0"/>
	<stop  offset="0.29" style="stop-color:#EDD1B5"/>
</linearGradient>
<path class="st43" d="M91.4,326.8l-40.1-40.1l91.6-99.3c0,0,2.3-4.4,5.9-4.2c5.1,0.3,29.1,0,29.1,0v37.6l18.6-17.7
	c0,0,10.6-6.3,18.1,2.5s-2.1,19-2.1,19l-63.7,62.5c-2.5,2.5-5.5,4.4-8.9,5.5c-5.5,1.7-15,2.7-19.2,1.1S91.4,326.8,91.4,326.8z"/>
<path class="st42" d="M192.8,213.9l11.5,12.3l7.9-8.3c0,0,4-4.2-1-10.4s-12.3,0-12.3,0L192.8,213.9z"/>
<path class="st42" d="M172,224.8l6-4.5v-14.2h-12.6L172,224.8z"/>
</svg>
